<svg xmlns="http://www.w3.org/2000/svg" viewBox="0 0 100 100"><path d="M94.2 94.2C93.1 95.4 91.5 96 90 96s-3.1-.6-4.2-1.8L68 76.5V84c0 3.3-2.7 6-6 6s-6-2.7-6-6V62c0-.6.1-1.2.2-1.7 0-.2.1-.3.2-.5.3-.7.7-1.4 1.3-2s1.3-1 2-1.3c.2-.1.3-.1.5-.2.6-.2 1.1-.3 1.7-.3h22c3.3 0 6 2.7 6 6s-2.7 6-6 6h-7.5l17.8 17.8c2.4 2.3 2.4 6.1 0 8.4zM44 62v22c0 3.3-2.7 6-6 6s-6-2.7-6-6v-7.5L14.2 94.2C13.1 95.4 11.5 96 10 96s-3.1-.6-4.2-1.8c-2.3-2.3-2.3-6.1 0-8.5L23.5 68H16c-3.3 0-6-2.7-6-6s2.7-6 6-6h22c.6 0 1.2.1 1.7.2.2 0 .3.1.5.2.7.3 1.4.7 2 1.3s1 1.3 1.3 2c.1.2.1.3.2.5.2.6.3 1.2.3 1.8zM44 16v22c0 .6-.1 1.2-.2 1.7 0 .2-.1.3-.2.5-.3.7-.7 1.4-1.3 2-.3.3-.7.6-1 .8-.1.1-.3.2-.4.2-.2.1-.3.2-.5.2h-.1c-.2.1-.3.1-.5.2-.6.3-1.2.4-1.8.4H16c-3.3 0-6-2.7-6-6s2.7-6 6-6h7.5L5.8 14.2c-2.3-2.3-2.3-6.1 0-8.5 2.3-2.3 6.1-2.3 8.5 0L32 23.5V16c0-3.3 2.7-6 6-6s6 2.7 6 6zM94.2 14.2L76.5 32H84c3.3 0 6 2.7 6 6s-2.7 6-6 6H62c-.6 0-1.2-.1-1.7-.2-.2 0-.3-.1-.5-.2h-.1c-.2-.1-.3-.2-.5-.2-.1-.1-.3-.2-.4-.2-.4-.2-.7-.5-1-.8-.6-.6-1-1.3-1.3-2-.1-.2-.1-.3-.2-.5-.2-.7-.3-1.3-.3-1.9V16c0-3.3 2.7-6 6-6s6 2.7 6 6v7.5L85.8 5.8c2.3-2.3 6.1-2.3 8.5 0 2.3 2.3 2.3 6.1-.1 8.4z"/></svg>