<svg width="48" height="48" fill="none" xmlns="http://www.w3.org/2000/svg"><path d="M3.043 41.988A.152.152 0 0 1 3 41.876V37.17a.147.147 0 0 1 .155-.155h.122a.157.157 0 0 1 .112.043.152.152 0 0 1 .043.112v2.496l1.57-1.193a.932.932 0 0 1 .156-.101.42.42 0 0 1 .14-.017h.136a.135.135 0 0 1 .141.14.178.178 0 0 1-.093.142L3.7 39.992l1.96 1.748a.234.234 0 0 1 .09.141.135.135 0 0 1-.141.141h-.113a.523.523 0 0 1-.155-.017.507.507 0 0 1-.141-.104L3.432 40.33v1.537a.152.152 0 0 1-.043.113.156.156 0 0 1-.112.042h-.122a.153.153 0 0 1-.112-.034zm3.7-.332a1.737 1.737 0 0 1-.358-1.129v-2.002a.141.141 0 0 1 .155-.155h.118a.147.147 0 0 1 .155.155V40.5c0 .805.35 1.207 1.052 1.207a1.048 1.048 0 0 0 .807-.321c.21-.245.318-.563.299-.886v-1.974a.147.147 0 0 1 .155-.155h.118a.156.156 0 0 1 .116.042c.028.031.043.072.042.113v3.356a.164.164 0 0 1-.042.113.157.157 0 0 1-.116.042h-.118a.148.148 0 0 1-.113-.042.147.147 0 0 1-.042-.113v-.333a1.459 1.459 0 0 1-.483.418 1.51 1.51 0 0 1-.693.14 1.286 1.286 0 0 1-1.052-.45zm3.85.332a.16.16 0 0 1-.04-.112v-3.36a.18.18 0 0 1 .04-.115.153.153 0 0 1 .115-.045h.113a.155.155 0 0 1 .16.16v.325a.979.979 0 0 1 .96-.485h.262a.16.16 0 0 1 .112.042.15.15 0 0 1 .04.113v.093a.148.148 0 0 1-.04.113.16.16 0 0 1-.112.042h-.305a.846.846 0 0 0-.925.922v2.186a.143.143 0 0 1-.045.113.167.167 0 0 1-.116.042H10.7a.164.164 0 0 1-.108-.034zm2.803-.05a1.362 1.362 0 0 1-.471-.353.563.563 0 0 1-.161-.319.121.121 0 0 1 .05-.101.172.172 0 0 1 .105-.04h.107a.146.146 0 0 1 .082.02.28.28 0 0 1 .073.073c.099.141.228.258.378.342.19.091.4.134.61.124.245.01.49-.047.704-.167a.526.526 0 0 0 .282-.476.442.442 0 0 0-.11-.31.887.887 0 0 0-.352-.206 6.892 6.892 0 0 0-.722-.203 1.693 1.693 0 0 1-.846-.387.888.888 0 0 1-.229-.629c0-.174.05-.346.144-.493a1.06 1.06 0 0 1 .432-.381c.213-.103.448-.154.685-.147.247-.007.492.042.716.144.17.077.32.192.438.336.078.086.129.194.143.31a.124.124 0 0 1-.045.102.166.166 0 0 1-.107.039h-.107a.174.174 0 0 1-.155-.093.988.988 0 0 0-.322-.319 1.106 1.106 0 0 0-.564-.11.97.97 0 0 0-.617.17.539.539 0 0 0-.212.442c-.005.1.024.2.082.282a.75.75 0 0 0 .319.209c.22.084.446.149.676.195.336.053.653.189.923.394a.845.845 0 0 1 .282.655.93.93 0 0 1-.161.53c-.12.17-.286.303-.48.38-.24.1-.5.148-.761.142a1.724 1.724 0 0 1-.81-.155zm5.098-.342a2.11 2.11 0 0 1-.386-1.21v-.394a2.11 2.11 0 0 1 .386-1.21 1.3 1.3 0 0 1 1.129-.497 1.39 1.39 0 0 1 1.184.564v-1.67a.154.154 0 0 1 .042-.112.156.156 0 0 1 .113-.042h.122a.148.148 0 0 1 .112.042.147.147 0 0 1 .043.113v4.696a.147.147 0 0 1-.155.155h-.122a.157.157 0 0 1-.113-.043.153.153 0 0 1-.042-.112v-.333a1.373 1.373 0 0 1-1.184.564 1.3 1.3 0 0 1-1.129-.51zm2.006-.282c.189-.252.294-.556.302-.871v-.564a1.387 1.387 0 0 0-.133-.564 1.088 1.088 0 0 0-1.018-.62.965.965 0 0 0-.846.363 1.659 1.659 0 0 0-.282.934v.197c-.016.375.072.746.254 1.075a.941.941 0 0 0 .874.42.996.996 0 0 0 .849-.37zm2.14.33a1.743 1.743 0 0 1-.428-1.159v-.578a1.743 1.743 0 0 1 .428-1.16 1.666 1.666 0 0 1 2.276 0c.279.322.43.735.426 1.16v.578a1.74 1.74 0 0 1-.426 1.16 1.667 1.667 0 0 1-2.276 0zm1.946-.282a1.35 1.35 0 0 0 .327-.913v-.522a1.34 1.34 0 0 0-.327-.911 1.176 1.176 0 0 0-1.616 0 1.34 1.34 0 0 0-.327.91v.523c-.008.334.109.66.327.913a1.176 1.176 0 0 0 1.616 0zm3.59.61a.16.16 0 0 1-.048-.12v-4.596a.16.16 0 0 1 .17-.17h.654a.163.163 0 0 1 .124.046.17.17 0 0 1 .045.124v3.926h2.237a.173.173 0 0 1 .127.05.17.17 0 0 1 .047.127v.494a.162.162 0 0 1-.047.124.18.18 0 0 1-.127.045h-3.075a.164.164 0 0 1-.107-.05zm4.076 0a.16.16 0 0 1-.048-.12v-4.59a.18.18 0 0 1 .045-.127.17.17 0 0 1 .124-.048h1.726c1.382 0 2.087.639 2.115 1.917 0 .283.014.457.014.565 0 .107 0 .282-.014.541-.02.66-.195 1.145-.53 1.458-.336.313-.846.468-1.551.468h-1.755a.165.165 0 0 1-.127-.065zm1.841-.762c.306.028.61-.067.846-.262a1.25 1.25 0 0 0 .282-.872c0-.282.014-.46.014-.53s0-.248-.014-.522a1.01 1.01 0 0 0-1.164-1.128h-.875v3.314h.911zm3.108.761a.152.152 0 0 1-.05-.118v-4.591a.18.18 0 0 1 .047-.127.158.158 0 0 1 .121-.048h3.103a.17.17 0 0 1 .177.175v.465a.157.157 0 0 1-.05.124.173.173 0 0 1-.127.045h-2.319v1.25h2.164a.171.171 0 0 1 .127.045.16.16 0 0 1 .05.124v.437a.163.163 0 0 1-.05.124.173.173 0 0 1-.127.045h-2.164v1.289h2.375a.164.164 0 0 1 .127.05.174.174 0 0 1 .05.128v.465a.161.161 0 0 1-.109.16.171.171 0 0 1-.068.01H37.32a.158.158 0 0 1-.118-.052zm4.394 0a.152.152 0 0 1-.05-.118v-4.591a.18.18 0 0 1 .047-.127.157.157 0 0 1 .121-.048h.62a.17.17 0 0 1 .178.175v1.65l1.594-1.693a.314.314 0 0 1 .282-.127h.7a.15.15 0 0 1 .1.043.133.133 0 0 1 .046.104.124.124 0 0 1-.028.085l-1.946 2.126 2.073 2.335a.144.144 0 0 1-.012.198.15.15 0 0 1-.101.042h-.728a.328.328 0 0 1-.282-.127l-1.692-1.87v1.828a.16.16 0 0 1-.11.16.173.173 0 0 1-.067.009h-.627a.157.157 0 0 1-.118-.054z" fill="#0C1726"/><path d="M32.53 11.71l-.157-.262a2.358 2.358 0 1 0-4.197-1.458v.104l-.259.074a8.292 8.292 0 0 0-.812.282 8.127 8.127 0 0 1-3.173.623 10.717 10.717 0 0 1-3.384-.564 6.718 6.718 0 0 0-1.997-.39c-.35.002-.7.046-1.04.13-2.745.68-3.577 3.32-2.866 9.118l.031.248h18.492l.028-.248c.449-3.674.229-6.173-.665-7.657zm-6.477-4.5a1.393 1.393 0 1 0 0-2.787 1.393 1.393 0 0 0 0 2.786zm5.104 17.925a.566.566 0 0 0-.431-.029.565.565 0 0 0-.322.282c-.476.968-1.466 2.801-2.755 4.18a.564.564 0 0 0 .824.77c1.393-1.486 2.442-3.43 2.944-4.453a.566.566 0 0 0 .028-.432.565.565 0 0 0-.288-.318z" fill="#fff"/><path d="M32.97 10.81a2.573 2.573 0 0 0-3.644-3.113 2.572 2.572 0 0 0-1.257 1.56c-.427.099-.845.23-1.252.392a7.373 7.373 0 0 1-2.88.564 9.888 9.888 0 0 1-3.124-.536c-1.06-.319-2.062-.623-3.486-.282-4.067 1.007-4.098 5.491-3.5 10.175.635 5.077 4.363 12.082 6.433 12.082 1.692 0 2.033-1.633 2.383-3.359.042-.217.087-.44.136-.665.355-1.65.93-2.022 1.128-2.028h.039c.192 0 .767.372 1.128 2.028.048.225.093.448.138.665.347 1.726.677 3.36 2.383 3.36 2.07 0 5.796-7 6.43-12.083.356-2.964.553-6.661-1.054-8.76zm-2.436-2.537A1.729 1.729 0 1 1 28.805 10a1.729 1.729 0 0 1 1.718-1.74l.011.012zm.64 17.502a19.09 19.09 0 0 1-2.907 4.368.282.282 0 0 1-.398.014.282.282 0 0 1 0-.397c1.317-1.41 2.321-3.269 2.803-4.25a.28.28 0 0 1 .275-.184.28.28 0 0 1 .205.1.282.282 0 0 1 .025.33l-.003.019zm1.754-6.447H14.921c-.688-5.618.085-8.179 2.654-8.808.318-.08.645-.122.973-.124a6.41 6.41 0 0 1 1.915.378c1.112.378 2.277.575 3.452.584a8.436 8.436 0 0 0 3.271-.64c.282-.102.528-.195.79-.268.077.412.253.8.513 1.128l-1.852 2.033a1.43 1.43 0 1 0 .623.564l1.855-2.036a2.56 2.56 0 0 0 3.162-.282c.877 1.433 1.077 3.884.64 7.46l.011.01zM26.053 7.632A1.817 1.817 0 1 0 26.036 4a1.817 1.817 0 0 0 .017 3.633zm0-2.783a.97.97 0 1 1-.017 1.94.97.97 0 0 1 .017-1.94z" fill="#0C1726"/></svg>