<svg xmlns="http://www.w3.org/2000/svg" viewBox="0 0 223.68 223.68"><path d="M36.88 175a.54.54 0 0 1-.15-.4v-16.68a.52.52 0 0 1 .55-.55h.43a.55.55 0 0 1 .4.15.54.54 0 0 1 .15.4v8.85l5.57-4.23a3.3 3.3 0 0 1 .55-.36 1.49 1.49 0 0 1 .5-.06h.48a.48.48 0 0 1 .5.5.63.63 0 0 1-.33.5l-6.32 4.8 6.95 6.2a.83.83 0 0 1 .32.5.48.48 0 0 1-.5.5h-.4a1.85 1.85 0 0 1-.55-.06 1.8 1.8 0 0 1-.5-.37l-6.27-5.57v5.45a.54.54 0 0 1-.15.4.55.55 0 0 1-.4.15h-.43a.54.54 0 0 1-.4-.12zM50 173.82a6.16 6.16 0 0 1-1.27-4v-7.1a.5.5 0 0 1 .55-.55h.42a.52.52 0 0 1 .55.55v7q0 4.28 3.73 4.28a3.72 3.72 0 0 0 2.86-1.14 4.41 4.41 0 0 0 1.06-3.14v-7a.52.52 0 0 1 .55-.55h.42a.56.56 0 0 1 .41.15.58.58 0 0 1 .15.4v11.9a.58.58 0 0 1-.15.4.56.56 0 0 1-.41.15h-.42a.52.52 0 0 1-.55-.55v-1.18a5.17 5.17 0 0 1-1.71 1.48 5.35 5.35 0 0 1-2.46.5 4.56 4.56 0 0 1-3.73-1.6zM63.65 175a.57.57 0 0 1-.14-.4v-11.91a.64.64 0 0 1 .14-.41.54.54 0 0 1 .41-.16h.4a.55.55 0 0 1 .57.57v1.15a3.47 3.47 0 0 1 3.4-1.72h.93a.57.57 0 0 1 .4.15.53.53 0 0 1 .14.4v.33a.53.53 0 0 1-.14.4.57.57 0 0 1-.4.15h-1.08a3 3 0 0 0-3.28 3.27v7.75a.51.51 0 0 1-.16.4.59.59 0 0 1-.41.15h-.4a.58.58 0 0 1-.38-.12zM73.59 174.82a4.83 4.83 0 0 1-1.67-1.25 2 2 0 0 1-.57-1.13.43.43 0 0 1 .18-.36.61.61 0 0 1 .37-.14h.38a.52.52 0 0 1 .29.07 1 1 0 0 1 .26.26 4 4 0 0 0 1.34 1.21 4.46 4.46 0 0 0 2.16.44 4.72 4.72 0 0 0 2.5-.59 1.87 1.87 0 0 0 1-1.69 1.57 1.57 0 0 0-.39-1.1 3.14 3.14 0 0 0-1.25-.73 24.52 24.52 0 0 0-2.56-.72 6 6 0 0 1-3-1.37 3.15 3.15 0 0 1-.81-2.23 3.29 3.29 0 0 1 .51-1.75 3.76 3.76 0 0 1 1.53-1.35 5.22 5.22 0 0 1 2.43-.52 5.72 5.72 0 0 1 2.54.51 4.27 4.27 0 0 1 1.55 1.19 2 2 0 0 1 .51 1.1.44.44 0 0 1-.16.36.59.59 0 0 1-.38.14h-.38a.62.62 0 0 1-.55-.33 3.5 3.5 0 0 0-1.14-1.13 3.92 3.92 0 0 0-2-.39 3.44 3.44 0 0 0-2.19.6 1.91 1.91 0 0 0-.75 1.57 1.6 1.6 0 0 0 .29 1 2.66 2.66 0 0 0 1.13.74 14.76 14.76 0 0 0 2.4.69 7.28 7.28 0 0 1 3.27 1.4 3 3 0 0 1 1 2.32 3.3 3.3 0 0 1-.57 1.88 3.83 3.83 0 0 1-1.7 1.35 6.67 6.67 0 0 1-2.7.5 6.11 6.11 0 0 1-2.87-.55zM91.67 173.61a7.48 7.48 0 0 1-1.37-4.29v-1.4a7.48 7.48 0 0 1 1.37-4.29 4.61 4.61 0 0 1 4-1.76 4.93 4.93 0 0 1 4.2 2v-5.92a.54.54 0 0 1 .15-.4.55.55 0 0 1 .4-.15h.43a.52.52 0 0 1 .55.55v16.65a.52.52 0 0 1-.55.55h-.43a.55.55 0 0 1-.4-.15.54.54 0 0 1-.15-.4v-1.18a4.87 4.87 0 0 1-4.2 2 4.61 4.61 0 0 1-4-1.81zm7.11-1a5.34 5.34 0 0 0 1.07-3.09v-1-1a4.92 4.92 0 0 0-.47-2 4 4 0 0 0-1.38-1.58 3.86 3.86 0 0 0-2.23-.62 3.42 3.42 0 0 0-3 1.29 5.88 5.88 0 0 0-1 3.31v.7a7.26 7.26 0 0 0 .9 3.81 3.34 3.34 0 0 0 3.1 1.49 3.53 3.53 0 0 0 3.01-1.31zM106.37 173.78a6.18 6.18 0 0 1-1.52-4.11v-2.05a6.18 6.18 0 0 1 1.52-4.11 5.91 5.91 0 0 1 8.07 0 6.17 6.17 0 0 1 1.51 4.11v2.05a6.17 6.17 0 0 1-1.51 4.11 5.91 5.91 0 0 1-8.07 0zm6.9-1a4.79 4.79 0 0 0 1.16-3.24v-.92-.93a4.75 4.75 0 0 0-1.16-3.23 4.17 4.17 0 0 0-5.73 0 4.75 4.75 0 0 0-1.16 3.23v1.85a4.79 4.79 0 0 0 1.16 3.24 4.17 4.17 0 0 0 5.73 0zM126 174.94a.57.57 0 0 1-.17-.42v-16.3a.57.57 0 0 1 .6-.6h2.32a.58.58 0 0 1 .44.16.6.6 0 0 1 .16.44v13.92h7.93a.61.61 0 0 1 .45.18.6.6 0 0 1 .17.45v1.75a.57.57 0 0 1-.17.44.64.64 0 0 1-.45.16h-10.9a.58.58 0 0 1-.38-.18zM140.45 174.94a.57.57 0 0 1-.17-.42v-16.28a.64.64 0 0 1 .16-.45.6.6 0 0 1 .44-.17H147q7.35 0 7.5 6.8c0 1 .05 1.62.05 2s0 1-.05 1.92c-.07 2.34-.69 4.06-1.88 5.17s-3 1.66-5.5 1.66h-6.22a.58.58 0 0 1-.45-.23zm6.53-2.7a4.12 4.12 0 0 0 3-.93 4.43 4.43 0 0 0 1-3.09c0-1 .05-1.63.05-1.88s0-.88-.05-1.85a3.58 3.58 0 0 0-4.13-4h-3.1v11.75zM158 174.94a.54.54 0 0 1-.18-.42v-16.28a.64.64 0 0 1 .17-.45.56.56 0 0 1 .43-.17h11a.6.6 0 0 1 .63.62v1.65a.56.56 0 0 1-.18.44.61.61 0 0 1-.45.16h-8.22v4.43h7.67a.61.61 0 0 1 .45.16.57.57 0 0 1 .18.44v1.55a.57.57 0 0 1-.18.44.61.61 0 0 1-.45.16h-7.67v4.57h8.42a.58.58 0 0 1 .45.18.61.61 0 0 1 .18.45v1.65a.57.57 0 0 1-.18.44.61.61 0 0 1-.45.16h-11.2a.56.56 0 0 1-.42-.18zM173.58 174.94a.54.54 0 0 1-.18-.42v-16.28a.64.64 0 0 1 .17-.45.56.56 0 0 1 .43-.17h2.2a.6.6 0 0 1 .63.62v5.85l5.65-6a1.11 1.11 0 0 1 1-.45h2.48a.53.53 0 0 1 .36.15.47.47 0 0 1 .16.37.44.44 0 0 1-.1.3l-6.9 7.54 7.35 8.28a.51.51 0 0 1 .12.32.49.49 0 0 1-.16.38.53.53 0 0 1-.36.15h-2.58a1.16 1.16 0 0 1-1-.45l-6-6.63v6.48a.57.57 0 0 1-.18.44.61.61 0 0 1-.45.16H174a.56.56 0 0 1-.42-.19z" fill="#0c1726"/><path d="M141.44 67.64l-.56-.93A8.36 8.36 0 1 0 126 61.54v.37l-.92.26c-1 .28-2 .65-2.88 1a28.82 28.82 0 0 1-11.25 2.21 38 38 0 0 1-12-2A23.83 23.83 0 0 0 91.87 62a15.53 15.53 0 0 0-3.69.46c-9.73 2.41-12.68 11.77-10.16 32.33l.11.88h65.57l.1-.88c1.59-13.03.81-21.89-2.36-27.15zM118.47 51.68a4.94 4.94 0 1 0-4.94-4.93 4.93 4.93 0 0 0 4.94 4.93zM136.57 115.24a2 2 0 0 0-1.53-.1 2 2 0 0 0-1.14 1c-1.69 3.43-5.2 9.93-9.77 14.82a2 2 0 0 0 .1 2.83 2 2 0 0 0 2.82-.1c4.94-5.27 8.66-12.16 10.44-15.79a2 2 0 0 0 .1-1.53 2 2 0 0 0-1.02-1.13z" fill="#fff"/><path d="M143 64.45a9.12 9.12 0 1 0-17.38-5.51 30.86 30.86 0 0 0-4.44 1.39 26.15 26.15 0 0 1-10.21 2 35.07 35.07 0 0 1-11.08-1.9c-3.76-1.13-7.31-2.21-12.36-1C73.11 63 73 78.9 75.12 95.51c2.25 18 15.47 42.84 22.81 42.84 6 0 7.21-5.79 8.45-11.91.15-.77.31-1.56.48-2.36 1.26-5.85 3.3-7.17 4-7.19h.14c.68 0 2.72 1.32 4 7.19.17.8.33 1.59.49 2.36 1.23 6.12 2.4 11.91 8.45 11.91 7.34 0 20.55-24.82 22.8-42.84C148 85 148.7 71.89 143 64.45zm-8.64-9a6.13 6.13 0 1 1-6.13 6.13 6.13 6.13 0 0 1 6.09-6.17zm2.27 62.06A67.68 67.68 0 0 1 126.32 133a1 1 0 0 1-1.41.05 1 1 0 0 1 0-1.41c4.67-5 8.23-11.59 9.94-15.07a1 1 0 1 1 1.79.87zm6.22-22.86H79c-2.44-19.92.3-29 9.41-31.23a14.18 14.18 0 0 1 3.45-.44 22.72 22.72 0 0 1 6.79 1.34 38.93 38.93 0 0 0 12.24 2.07 29.92 29.92 0 0 0 11.6-2.27c1-.36 1.87-.69 2.8-.95a9.13 9.13 0 0 0 1.82 4l-6.57 7.21a5.07 5.07 0 1 0 2.21 2l6.58-7.22a9.08 9.08 0 0 0 11.21-1c3.11 5.08 3.82 13.77 2.27 26.45zM118.47 53.18a6.44 6.44 0 1 0-6.47-6.43 6.43 6.43 0 0 0 6.47 6.43zm0-9.87a3.44 3.44 0 1 1-3.47 3.44 3.44 3.44 0 0 1 3.47-3.44z" fill="#0c1726"/></svg>
