<svg xmlns="http://www.w3.org/2000/svg" viewBox="0 0 223.68 223.68"><path d="M45.67 175a.54.54 0 0 1-.15-.4v-16.68a.52.52 0 0 1 .55-.55h.42a.52.52 0 0 1 .55.55v8.85l5.58-4.23a2.93 2.93 0 0 1 .55-.36 1.45 1.45 0 0 1 .5-.06h.47a.49.49 0 0 1 .36.14.45.45 0 0 1 .14.36.64.64 0 0 1-.32.5l-6.32 4.8 6.95 6.2c.22.2.33.37.33.5a.48.48 0 0 1-.5.5h-.4a1.81 1.81 0 0 1-.55-.06 1.66 1.66 0 0 1-.5-.37L47 169.12v5.45a.52.52 0 0 1-.55.55h-.42a.54.54 0 0 1-.36-.12zM58.82 173.82a6.16 6.16 0 0 1-1.28-4v-7.1a.54.54 0 0 1 .15-.4.55.55 0 0 1 .4-.15h.43a.55.55 0 0 1 .4.15.54.54 0 0 1 .15.4v7q0 4.28 3.72 4.28a3.71 3.71 0 0 0 2.86-1.14 4.41 4.41 0 0 0 1.07-3.14v-7a.52.52 0 0 1 .55-.55h.42a.52.52 0 0 1 .55.55v11.9a.52.52 0 0 1-.55.55h-.42a.52.52 0 0 1-.55-.55v-1.18a5.1 5.1 0 0 1-1.72 1.43 5.35 5.35 0 0 1-2.46.5 4.55 4.55 0 0 1-3.72-1.55zM72.44 175a.54.54 0 0 1-.15-.4v-11.91a.59.59 0 0 1 .15-.41.52.52 0 0 1 .4-.16h.4a.53.53 0 0 1 .41.16.57.57 0 0 1 .17.41v1.15a3.47 3.47 0 0 1 3.4-1.72h.92a.52.52 0 0 1 .55.55v.33a.52.52 0 0 1-.55.55h-1.07a3 3 0 0 0-3.25 3.25v7.75a.51.51 0 0 1-.17.4.56.56 0 0 1-.41.15h-.4a.55.55 0 0 1-.4-.1zM82.38 174.82a5 5 0 0 1-1.68-1.25 2.08 2.08 0 0 1-.56-1.13.43.43 0 0 1 .18-.36.59.59 0 0 1 .37-.14h.38a.49.49 0 0 1 .28.07.91.91 0 0 1 .27.26 3.93 3.93 0 0 0 1.38 1.21 4.53 4.53 0 0 0 2.17.44 4.74 4.74 0 0 0 2.5-.59 1.87 1.87 0 0 0 .95-1.69 1.57 1.57 0 0 0-.39-1.1 3.22 3.22 0 0 0-1.25-.73 25.27 25.27 0 0 0-2.56-.72 5.94 5.94 0 0 1-3-1.37 3.15 3.15 0 0 1-.81-2.23 3.29 3.29 0 0 1 .51-1.75 3.8 3.8 0 0 1 1.52-1.35 5.26 5.26 0 0 1 2.44-.52 5.72 5.72 0 0 1 2.54.51 4.27 4.27 0 0 1 1.55 1.19 2 2 0 0 1 .51 1.1.44.44 0 0 1-.16.36.6.6 0 0 1-.39.14h-.37a.6.6 0 0 1-.55-.33 3.7 3.7 0 0 0-1.21-1.13 3.94 3.94 0 0 0-2-.39 3.47 3.47 0 0 0-2.2.6 1.91 1.91 0 0 0-.75 1.57 1.61 1.61 0 0 0 .3 1 2.59 2.59 0 0 0 1.13.74 14.76 14.76 0 0 0 2.4.69 7.28 7.28 0 0 1 3.27 1.4 3 3 0 0 1 1 2.32 3.3 3.3 0 0 1-.57 1.88 3.88 3.88 0 0 1-1.7 1.35 6.67 6.67 0 0 1-2.7.5 6.08 6.08 0 0 1-2.8-.55zM100.45 173.61a7.55 7.55 0 0 1-1.36-4.29v-1.4a7.55 7.55 0 0 1 1.36-4.29 4.63 4.63 0 0 1 4-1.76 4.93 4.93 0 0 1 4.2 2v-5.92a.52.52 0 0 1 .55-.55h.43a.55.55 0 0 1 .4.15.54.54 0 0 1 .15.4v16.65a.54.54 0 0 1-.15.4.55.55 0 0 1-.4.15h-.43a.52.52 0 0 1-.55-.55v-1.18a4.89 4.89 0 0 1-4.2 2 4.63 4.63 0 0 1-4-1.81zm7.12-1a5.41 5.41 0 0 0 1.07-3.09v-1-1a5.08 5.08 0 0 0-.47-2 4 4 0 0 0-1.35-1.59 3.88 3.88 0 0 0-2.23-.62 3.4 3.4 0 0 0-3 1.29 5.8 5.8 0 0 0-1 3.31v.7a7.26 7.26 0 0 0 .9 3.81 3.33 3.33 0 0 0 3.1 1.49 3.53 3.53 0 0 0 2.98-1.3zM115.15 173.78a6.22 6.22 0 0 1-1.51-4.11v-2.05a6.22 6.22 0 0 1 1.51-4.11 5.93 5.93 0 0 1 8.08 0 6.17 6.17 0 0 1 1.51 4.11v2.05a6.17 6.17 0 0 1-1.51 4.11 5.93 5.93 0 0 1-8.08 0zm6.9-1a4.75 4.75 0 0 0 1.17-3.24v-.92-.93a4.7 4.7 0 0 0-1.17-3.23 4.16 4.16 0 0 0-5.72 0 4.7 4.7 0 0 0-1.16 3.23v1.85a4.74 4.74 0 0 0 1.16 3.24 4.16 4.16 0 0 0 5.72 0zM134.74 174.94a.54.54 0 0 1-.17-.42v-16.3a.57.57 0 0 1 .17-.44.6.6 0 0 1 .43-.16h2.32a.55.55 0 0 1 .6.6v13.92H146a.61.61 0 0 1 .45.18.64.64 0 0 1 .17.45v1.75a.6.6 0 0 1-.17.44.64.64 0 0 1-.45.16h-10.83a.58.58 0 0 1-.43-.18zM149.24 174.94a.54.54 0 0 1-.17-.42v-16.28a.64.64 0 0 1 .16-.45.59.59 0 0 1 .44-.17h11a.58.58 0 0 1 .62.62v1.65a.59.59 0 0 1-.17.44.64.64 0 0 1-.45.16h-8.23v4.43h7.68a.64.64 0 0 1 .45.16.6.6 0 0 1 .17.44v1.55a.6.6 0 0 1-.17.44.64.64 0 0 1-.45.16h-7.68v4.57h8.43a.61.61 0 0 1 .45.18.64.64 0 0 1 .17.45v1.65a.6.6 0 0 1-.17.44.64.64 0 0 1-.45.16h-11.2a.58.58 0 0 1-.43-.18zM164.79 174.94a.54.54 0 0 1-.17-.42v-16.28a.64.64 0 0 1 .16-.45.59.59 0 0 1 .44-.17h2.2a.58.58 0 0 1 .62.62v5.85l5.65-6a1.13 1.13 0 0 1 1-.45h2.47a.53.53 0 0 1 .36.15.48.48 0 0 1 .17.37.49.49 0 0 1-.1.3l-6.9 7.54 7.35 8.28a.52.52 0 0 1 .13.32.5.5 0 0 1-.17.38.53.53 0 0 1-.36.15h-2.57a1.17 1.17 0 0 1-1-.45L168 168v6.48a.6.6 0 0 1-.17.44.64.64 0 0 1-.45.16h-2.2a.58.58 0 0 1-.39-.14z" fill="#0c1726"/><circle cx="100.95" cy="94.39" r="4.51" fill="#19171c"/><path d="M100.46 57.1a4.83 4.83 0 1 0-4.84-4.83 4.83 4.83 0 0 0 4.84 4.83zM132 79.24s0-9-7-9-8 9-8 9H79s6 35 22 48 27-2 33-12 11-24 12-36z" fill="#fff"/><path d="M128.71 119.59c.81-1.09 1.63-2.25 2.45-3.5a69.89 69.89 0 0 0-21.28-19 9.64 9.64 0 0 0 .38-2.65 9.33 9.33 0 1 0-2.33 6.15 65.72 65.72 0 0 1 20.78 19zM124.92 84.25a6.13 6.13 0 1 0-6.12-6.12 6.13 6.13 0 0 0 6.12 6.12zM129.83 124.62c-5.23 6.21-10.77 9.71-16.09 10.2a10 10 0 0 0 7.65 6.17c4 .71 9-.93 10.74-5.45 1.44-3.86 1.07-7.84-1.22-12.25-.36.46-.72.91-1.08 1.33zM142.83 81.58a1 1 0 0 0-1.13.85 87.14 87.14 0 0 1-4.07 16.14 1 1 0 0 0 .61 1.27 1 1 0 0 0 1.28-.61 90.5 90.5 0 0 0 4.17-16.52 1 1 0 0 0-.86-1.13z" fill="none"/><path d="M137.93 47.65a11.59 11.59 0 0 0-9.5-.23 6 6 0 1 0 2.49 4.85 5.68 5.68 0 0 0-.19-1.44 7.3 7.3 0 0 1 5.34.36c7.11 3.74 9.7 12.1 8.28 26.94h-10.3a9.13 9.13 0 1 0-18.25 0H80.55c-1.43-14.84 1.17-23.2 8.27-26.94a7.32 7.32 0 0 1 5.36-.35 6.74 6.74 0 0 0-.18 1.43 6.43 6.43 0 1 0 2.29-4.92 11.6 11.6 0 0 0-9.35.3c-11.89 6.25-11.61 21.49-10 34.07 2.31 18.5 10.89 34.29 18.14 42.9 4.69 5.56 9.61 8.94 14.41 9.94a13.82 13.82 0 0 0 11.23 10.37 15.55 15.55 0 0 0 2.62.23 13.17 13.17 0 0 0 12.55-8.22c2.33-6.21.68-12.08-2.37-17.17a88.22 88.22 0 0 0 14.48-38c1.55-12.63 1.83-27.87-10.07-34.12zm-37.47 1.19A3.43 3.43 0 1 1 97 52.27a3.44 3.44 0 0 1 3.46-3.43zM124.92 72a6.13 6.13 0 1 1-6.12 6.13 6.14 6.14 0 0 1 6.12-6.13zm-17 28.54a9.31 9.31 0 1 1 2.33-6.15 9.64 9.64 0 0 1-.38 2.65 69.89 69.89 0 0 1 21.28 19c-.82 1.25-1.64 2.41-2.45 3.5a65.72 65.72 0 0 0-20.77-19zm24.2 35c-1.7 4.52-6.69 6.16-10.74 5.45a10 10 0 0 1-7.65-6.17c5.32-.49 10.86-4 16.09-10.2.36-.42.72-.87 1.08-1.33 2.3 4.41 2.67 8.39 1.23 12.25zm7.39-36.31a1 1 0 0 1-1.28.61 1 1 0 0 1-.61-1.27 87.14 87.14 0 0 0 4.07-16.14 1 1 0 0 1 2 .28 90.5 90.5 0 0 1-4.17 16.52z" fill="#0c1726"/><circle cx="100.94" cy="94.46" r="4.51" fill="#0c1726"/></svg>
