<svg width="25" height="32" viewBox="0 0 25 32" fill="none" xmlns="http://www.w3.org/2000/svg">
<path d="M20.746 0.582655C20.2704 0.354929 19.752 0.230587 19.2249 0.217825C18.6978 0.205064 18.174 0.304173 17.688 0.50862C17.3362 0.254876 16.9093 0.126941 16.4759 0.145422C16.0426 0.163903 15.628 0.327725 15.2991 0.610498C14.9702 0.89327 14.7461 1.27853 14.6628 1.70421C14.5795 2.1299 14.642 2.57122 14.8401 2.95709C15.0382 3.34296 15.3604 3.65091 15.7549 3.83133C16.1493 4.01175 16.593 4.05413 17.0145 3.95166C17.436 3.84918 17.8107 3.60781 18.0783 3.26643C18.3458 2.92505 18.4907 2.50353 18.4895 2.06978C18.4891 1.91329 18.4685 1.75751 18.4284 1.60626C18.9953 1.42588 19.6096 1.46729 20.1473 1.72214C22.4359 2.926 23.2696 5.61699 22.8125 10.3938H19.497C19.5101 9.99991 19.4438 9.60741 19.302 9.23966C19.1603 8.87191 18.946 8.53642 18.672 8.25316C18.398 7.96991 18.0697 7.74466 17.7069 7.59083C17.344 7.437 16.9539 7.35772 16.5598 7.35772C16.1657 7.35772 15.7756 7.437 15.4127 7.59083C15.0499 7.74466 14.7217 7.96991 14.4476 8.25316C14.1736 8.53642 13.9593 8.87191 13.8176 9.23966C13.6759 9.60741 13.6095 9.99991 13.6226 10.3938H2.27602C1.81572 5.61699 2.65263 2.926 4.93804 1.72214C5.47858 1.46869 6.09512 1.42958 6.66336 1.6127C6.62763 1.76252 6.6082 1.91578 6.60542 2.06978C6.60543 2.541 6.76623 2.99811 7.06125 3.36555C7.35626 3.73299 7.76783 3.98876 8.22792 4.09059C8.688 4.19241 9.16906 4.13419 9.59157 3.92555C10.0141 3.71691 10.3528 3.37034 10.5516 2.94313C10.7504 2.51592 10.7976 2.03364 10.6852 1.57603C10.5727 1.11841 10.3076 0.712849 9.93341 0.426382C9.55926 0.139915 9.09857 -0.0103066 8.62747 0.000549729C8.15638 0.0114061 7.70309 0.182689 7.34254 0.486087C6.86166 0.292364 6.34571 0.200904 5.82755 0.217529C5.30938 0.234155 4.80036 0.358504 4.33289 0.582655C0.505634 2.59446 0.595763 7.50004 1.114 11.5494C1.85757 17.5043 4.61937 22.5869 6.95306 25.3584C8.46915 27.1545 10.0593 28.2554 11.6076 28.5612C11.8546 29.3842 12.3342 30.1182 12.9886 30.675C13.6431 31.2318 14.4445 31.5876 15.2964 31.6996C15.5636 31.7423 15.8338 31.7638 16.1043 31.764C17.2211 31.7756 18.3128 31.4324 19.2221 30.784C20.1314 30.1355 20.8115 29.2152 21.1644 28.1556C21.7889 26.2919 21.4863 24.3766 20.2406 22.3616C22.2075 19.0478 23.4821 15.3697 23.9874 11.5494C24.4863 7.50004 24.5764 2.59446 20.746 0.582655ZM8.68481 0.965702C8.90368 0.966975 9.11725 1.03308 9.29856 1.15566C9.47988 1.27825 9.6208 1.45182 9.70352 1.65444C9.78625 1.85707 9.80707 2.07967 9.76336 2.29413C9.71965 2.50858 9.61337 2.70527 9.45793 2.85936C9.3025 3.01344 9.10489 3.11801 8.89006 3.15985C8.67523 3.20169 8.45283 3.17893 8.25093 3.09445C8.04903 3.00996 7.87669 2.86753 7.75569 2.68516C7.63469 2.50279 7.57045 2.28864 7.57108 2.06978C7.5715 1.92409 7.60067 1.77993 7.65691 1.64553C7.71315 1.51114 7.79535 1.38917 7.89881 1.2866C8.00227 1.18404 8.12496 1.1029 8.25984 1.04783C8.39471 0.992763 8.53913 0.964854 8.68481 0.965702ZM16.5582 8.42064C16.9486 8.42 17.3304 8.53518 17.6553 8.75161C17.9802 8.96804 18.2336 9.27599 18.3835 9.63648C18.5333 9.99697 18.5728 10.3938 18.4971 10.7768C18.4213 11.1598 18.2336 11.5116 17.9578 11.7879C17.682 12.0642 17.3304 12.2524 16.9476 12.3288C16.5647 12.4052 16.1678 12.3663 15.8071 12.2171C15.4463 12.0678 15.138 11.8149 14.921 11.4904C14.7041 11.1658 14.5882 10.7842 14.5882 10.3938C14.5891 9.87131 14.7968 9.37041 15.166 9.00064C15.5351 8.63088 16.0357 8.42234 16.5582 8.42064ZM11.0861 17.6073C10.6219 18.1333 9.98792 18.4797 9.29458 18.5862C8.60124 18.6928 7.89248 18.5528 7.29177 18.1905C6.69107 17.8283 6.23647 17.2668 6.00717 16.6038C5.77787 15.9409 5.7884 15.2185 6.03693 14.5625C6.28545 13.9065 6.75622 13.3585 7.36724 13.0139C7.97825 12.6694 8.69078 12.55 9.38072 12.6768C10.0707 12.8035 10.6943 13.1682 11.143 13.7075C11.5916 14.2467 11.8369 14.9262 11.8361 15.6277C11.8352 15.9164 11.794 16.2035 11.7138 16.4807C14.3933 18.0267 16.7251 20.1087 18.5636 22.5966C18.2996 22.999 18.0357 23.3724 17.7749 23.7232C16.0143 21.2256 13.7334 19.1392 11.0893 17.6073H11.0861ZM19.938 27.7339C19.6438 28.6405 19.0329 29.4109 18.2172 29.9038C17.4014 30.3968 16.4354 30.5795 15.496 30.4185C14.9654 30.3471 14.4606 30.1462 14.0261 29.8335C13.5916 29.5208 13.2408 29.106 13.0046 28.6256C14.7009 28.455 16.4681 27.338 18.1548 25.3487C18.6258 24.7858 19.0664 24.1981 19.4745 23.588C20.2213 25.0623 20.379 26.4464 19.938 27.7339ZM21.2578 17.176C21.2437 17.216 21.2219 17.2529 21.1935 17.2844C21.1652 17.316 21.1309 17.3416 21.0926 17.3598C21.0543 17.3781 21.0128 17.3886 20.9704 17.3907C20.9281 17.3929 20.8857 17.3866 20.8458 17.3724C20.7657 17.3439 20.7001 17.285 20.6634 17.2084C20.6266 17.1318 20.6216 17.0438 20.6494 16.9636C21.2509 15.2776 21.6896 13.5379 21.9595 11.7683C21.9654 11.726 21.9796 11.6853 22.0012 11.6485C22.0229 11.6117 22.0516 11.5796 22.0856 11.5539C22.1197 11.5282 22.1585 11.5094 22.1998 11.4987C22.2411 11.488 22.2842 11.4855 22.3264 11.4915C22.3687 11.4974 22.4094 11.5116 22.4462 11.5332C22.483 11.5548 22.5151 11.5835 22.5409 11.6176C22.5666 11.6517 22.5853 11.6905 22.596 11.7318C22.6067 11.7731 22.6092 11.8161 22.6033 11.8584C22.3236 13.6726 21.8731 15.4563 21.2578 17.1857V17.176Z" fill="#19171C"/>
</svg>
