<?xml version="1.0" encoding="UTF-8"?>
<svg width="220px" height="37px" viewBox="0 0 220 37" version="1.1" xmlns="http://www.w3.org/2000/svg" xmlns:xlink="http://www.w3.org/1999/xlink">
    <!-- Generator: Sketch 41.2 (35397) - http://www.bohemiancoding.com/sketch -->
    <title>logo/main/normal</title>
    <desc>Created with Sketch.</desc>
    <defs></defs>
    <g id="elements" stroke="none" stroke-width="1" fill="none" fill-rule="evenodd">
        <g transform="translate(-51.000000, -49.000000)" id="logo/main/normal" fill="#242D47">
            <g transform="translate(51.000000, 49.000000)">
                <g id="logo">
                    <g id="wiecejnizlek_logo_poziom-01">
                        <path d="M81.8227379,14.69085 C81.7687479,14.68715 81.6574624,14.7334 81.550217,14.72563 C81.2281135,14.70195 80.9710184,14.51991 80.8332888,14.18358 C79.3876795,10.27083 75.8966945,7.02482 71.4140568,5.55481 C70.9924207,5.41532 70.7547913,4.96281 70.8936227,4.53768 C71.0320868,4.11292 71.4812688,3.8739 71.9029048,4.01339 C76.8038731,5.67691 80.7010684,9.27923 82.2763272,13.63635 C82.4063439,14.08109 82.2142571,14.50215 81.8227379,14.69085 L81.8227379,14.69085 Z M21.4050083,33.82207 L21.135793,33.82207 C11.1748247,33.82207 3.04474124,26.98743 3.04474124,18.5259 C3.04474124,10.11839 11.121202,3.22973 21.135793,3.22973 L21.2434057,3.22973 L21.3510184,3.22973 L42.5709182,3.22973 L42.5261102,33.82207 L21.4050083,33.82207 L21.4050083,33.82207 Z M66.6372287,0.24642 L65.9911853,0.24642 L65.6683472,0.24642 L21.2973957,0.24642 L21.189783,0.24642 L21.081803,0.24642 C9.45191987,0.24642 0.0297495826,8.43711 0.0297495826,18.5259 C0.0297495826,28.61469 9.50590985,36.80538 21.081803,36.80538 L65.6143573,36.80538 L65.9371953,36.80538 L66.5832387,36.80538 C77.3492821,36.80538 86.1232053,28.57288 86.1232053,18.49889 C86.1232053,8.4249 77.4029048,0.24642 66.6372287,0.24642 L66.6372287,0.24642 Z" id="Fill-1"></path>
                        <path d="M35.433222,20.3722 C34.6795659,20.3722 34.0871452,19.77539 34.0871452,19.01615 C34.0871452,18.25691 34.6795659,17.6601 35.433222,17.6601 C36.1872454,17.6601 36.7792988,18.25691 36.7792988,19.01615 C36.7792988,19.77539 36.1872454,20.3722 35.433222,20.3722 L35.433222,20.3722 Z M20.6267446,9.08979 C20.1419366,9.08979 19.7114858,8.65615 19.7114858,8.16775 C19.7114858,7.67972 20.1419366,7.24571 20.6267446,7.24571 C21.1111853,7.24571 21.5420033,7.67972 21.5420033,8.16775 C21.5420033,8.65615 21.1111853,9.08979 20.6267446,9.08979 L20.6267446,9.08979 Z M35.433222,16.03284 C34.6501836,16.03284 33.9317863,16.35363 33.3981302,16.86756 L22.4851753,8.82413 C22.5674457,8.60398 22.6188648,8.36718 22.6188648,8.11373 C22.6188648,6.9745 21.703606,6.10685 20.6267446,6.10685 C19.4958932,6.10685 18.6346244,7.02889 18.6346244,8.11373 C18.6346244,9.25259 19.5498831,10.12061 20.6267446,10.12061 C21.0814357,10.12061 21.5019699,9.95892 21.8424374,9.69437 L32.7649416,17.7452 C32.5794658,18.13259 32.4722204,18.5629 32.4722204,19.01615 C32.4722204,19.44868 32.5695492,19.86086 32.7395993,20.23456 L21.8663105,27.86914 C21.5221703,27.59275 21.0924541,27.42366 20.6267446,27.42366 C19.4958932,27.42366 18.6346244,28.3457 18.6346244,29.43054 C18.6346244,30.5694 19.5498831,31.43742 20.6267446,31.43742 C21.703606,31.43742 22.6188648,30.51538 22.6188648,29.43054 C22.6188648,29.18819 22.5700167,28.96212 22.4943573,28.75048 L33.3547913,21.12478 C33.8924875,21.66313 34.6292487,21.99946 35.433222,21.99946 C37.1025042,21.99946 38.394591,20.64341 38.394591,19.01615 C38.394591,17.38889 37.0485142,16.03284 35.433222,16.03284 L35.433222,16.03284 Z" id="Fill-2"></path>
                        <path d="M12.2810684,25.57921 C11.9835726,25.57921 11.7426377,25.8223 11.7426377,26.12163 C11.7426377,26.42133 11.9835726,26.66405 12.2810684,26.66405 C12.5785643,26.66405 12.8194992,26.42133 12.8194992,26.12163 C12.8194992,25.8223 12.5785643,25.57921 12.2810684,25.57921" id="Fill-3"></path>
                        <path d="M9.85813022,22.65029 C9.35275459,22.65029 8.94287145,23.06321 8.94287145,23.57233 C8.94287145,24.08182 9.35275459,24.49437 9.85813022,24.49437 C10.3638731,24.49437 10.773389,24.08182 10.773389,23.57233 C10.773389,23.06321 10.3638731,22.65029 9.85813022,22.65029" id="Fill-4"></path>
                        <path d="M8.72764608,17.00927 C7.75839733,17.00927 7.00437396,17.76851 7.00437396,18.74494 C7.00437396,19.72137 7.75839733,20.48061 8.72764608,20.48061 C9.69652755,20.48061 10.4505509,19.72137 10.4505509,18.74494 C10.4505509,17.76851 9.69652755,17.00927 8.72764608,17.00927" id="Fill-5"></path>
                        <path d="M110.787813,13.66743 C110.787813,13.58788 110.866778,13.50833 110.94611,13.50833 C111.025075,13.42841 111.10404,13.42841 111.262337,13.42841 L111.657529,13.42841 C111.736494,13.42841 111.815459,13.42841 111.894791,13.50833 C111.973756,13.58788 111.973756,13.66743 111.973756,13.74698 L111.973756,13.986 L109.285643,22.90633 C109.206678,23.0658 109.127713,23.2249 109.048381,23.30482 C108.969416,23.38437 108.811486,23.38437 108.653189,23.38437 L108.336962,23.38437 C108.020735,23.38437 107.783472,23.2249 107.704508,22.90633 L105.332621,15.3402 L102.960735,22.90633 C102.88177,23.2249 102.644508,23.38437 102.32828,23.38437 L102.012053,23.38437 C101.854124,23.38437 101.695826,23.38437 101.616861,23.30482 C101.537896,23.2249 101.458564,23.14535 101.379599,22.90633 L98.6914858,13.986 L98.6914858,13.74698 C98.6914858,13.66743 98.6914858,13.58788 98.7704508,13.50833 C98.849783,13.42841 98.9287479,13.42841 99.0077129,13.42841 L99.4032721,13.42841 C99.4822371,13.42841 99.6401669,13.42841 99.7194992,13.50833 C99.7984641,13.58788 99.877429,13.66743 99.877429,13.66743 L102.249316,21.63205 L104.779132,13.74698 C104.779132,13.66743 104.858097,13.58788 104.937429,13.50833 C105.016394,13.42841 105.174691,13.42841 105.253656,13.42841 L105.648848,13.42841 C105.807145,13.42841 105.88611,13.42841 105.965075,13.50833 C106.04404,13.58788 106.123372,13.66743 106.123372,13.74698 L108.653189,21.63205 L110.787813,13.66743" id="Fill-6"></path>
                        <path d="M115.294324,23.2249 C115.215359,23.30482 115.136027,23.30482 114.978097,23.30482 L114.66187,23.30482 C114.503573,23.30482 114.424608,23.30482 114.345643,23.2249 C114.266311,23.14535 114.266311,23.0658 114.266311,22.90633 L114.266311,13.74698 C114.266311,13.58788 114.266311,13.50833 114.345643,13.42841 C114.424608,13.34886 114.503573,13.34886 114.66187,13.34886 L114.978097,13.34886 C115.136027,13.34886 115.215359,13.34886 115.294324,13.42841 C115.373289,13.50833 115.373289,13.58788 115.373289,13.74698 L115.373289,22.90633 C115.452254,23.0658 115.373289,23.14535 115.294324,23.2249 L115.294324,23.2249 Z M115.531586,11.19842 C115.452254,11.27797 115.373289,11.27797 115.215359,11.27797 L114.503573,11.27797 C114.345643,11.27797 114.266311,11.27797 114.187346,11.19842 C114.108381,11.11887 114.108381,11.03932 114.108381,10.87985 L114.108381,10.16316 C114.108381,10.00369 114.108381,9.92414 114.187346,9.84459 C114.266311,9.76467 114.345643,9.68512 114.503573,9.68512 L115.215359,9.68512 C115.373289,9.68512 115.452254,9.76467 115.531586,9.84459 C115.610551,9.92414 115.689516,10.00369 115.689516,10.16316 L115.689516,10.87985 C115.610551,11.03932 115.610551,11.11887 115.531586,11.19842 L115.531586,11.19842 Z" id="Fill-7"></path>
                        <path d="M125.256027,17.72929 L125.256027,17.72929 C125.256027,16.69403 124.9398,15.81787 124.465275,15.18073 C123.911786,14.54359 123.200367,14.22502 122.251686,14.22502 C121.303005,14.22502 120.591219,14.54359 120.03773,15.18073 C119.484608,15.81787 119.247346,16.61448 119.247346,17.64974 L119.247346,17.72929 L125.256027,17.72929 L125.256027,17.72929 Z M125.334992,14.46404 C126.046411,15.3402 126.44197,16.53493 126.44197,18.12778 L126.44197,18.44635 C126.44197,18.60545 126.362638,18.685 126.283673,18.76492 C126.204708,18.84447 126.125743,18.84447 125.967446,18.84447 L119.168381,18.84447 L119.168381,19.00394 C119.168381,19.64108 119.326311,20.19867 119.563573,20.67634 C119.800835,21.23393 120.196027,21.63205 120.591219,21.95062 C121.065743,22.26919 121.5399,22.42866 122.172721,22.42866 C122.88414,22.42866 123.437629,22.26919 123.911786,22.03017 C124.386311,21.79152 124.702538,21.47295 124.860467,21.23393 C124.9398,21.07446 125.09773,20.99491 125.09773,20.91536 C125.176694,20.91536 125.256027,20.83581 125.413957,20.83581 L125.730184,20.83581 C125.809149,20.83581 125.967446,20.83581 126.046411,20.91536 C126.125743,20.99491 126.125743,21.07446 126.125743,21.15438 C126.125743,21.39303 125.967446,21.63205 125.730184,21.95062 C125.492922,22.26919 125.09773,22.58776 124.623573,22.82678 C124.149048,23.0658 123.595559,23.30482 123.04207,23.38437 C122.646878,23.46392 122.330651,23.62339 122.093389,23.86204 C121.856127,24.10106 121.777162,24.41963 121.777162,24.89767 C121.777162,25.37534 121.935459,25.77383 122.172721,26.01248 C122.409616,26.2515 122.805175,26.41097 123.200367,26.41097 L123.516594,26.41097 C123.674524,26.41097 123.753856,26.41097 123.832821,26.49052 C123.911786,26.57007 123.911786,26.64999 123.911786,26.80909 L123.911786,27.04811 C123.911786,27.20721 123.911786,27.28713 123.832821,27.36668 C123.753856,27.44623 123.674524,27.44623 123.516594,27.44623 L123.121402,27.44623 C122.330651,27.44623 121.698197,27.20721 121.303005,26.72954 C120.828481,26.2515 120.591219,25.61436 120.591219,24.81812 C120.591219,24.18098 120.749516,23.70294 120.986778,23.30482 C120.117062,23.0658 119.405275,22.58776 118.852154,21.79152 C118.298664,21.07446 118.061402,20.11875 117.982437,19.00394 L117.982437,17.41072 C118.061402,16.05689 118.535927,15.02163 119.247346,14.22502 C119.958765,13.42841 120.986778,13.03029 122.172721,13.03029 C123.516594,13.18976 124.54424,13.58788 125.334992,14.46404 L125.334992,14.46404 Z" id="Fill-8"></path>
                        <path d="M130.473957,21.5525 C131.027446,22.11009 131.738865,22.34911 132.687546,22.34911 C133.398965,22.34911 133.952454,22.18964 134.426978,21.87107 C134.901135,21.5525 135.217362,21.07446 135.454624,20.35777 C135.533957,20.19867 135.612922,20.11875 135.612922,20.0392 C135.612922,19.95965 135.770851,19.95965 135.850184,19.95965 L136.087078,19.95965 C136.166411,19.95965 136.324341,20.0392 136.403306,20.11875 C136.482638,20.19867 136.561603,20.27822 136.482638,20.43732 C136.482638,20.91536 136.324341,21.39303 136.008114,21.87107 C135.691886,22.34911 135.296694,22.74723 134.66424,22.98625 C134.031786,23.2249 133.32,23.46392 132.529616,23.46392 C131.185376,23.46392 130.15773,23.0658 129.445943,22.26919 C128.734524,21.47295 128.339332,20.43732 128.339332,19.00394 L128.339332,17.41072 C128.339332,15.97734 128.734524,14.94171 129.445943,14.14547 C130.15773,13.34886 131.185376,12.95074 132.529616,12.95074 C133.399332,12.95074 134.110751,13.10984 134.66424,13.42841 C135.217362,13.74698 135.691886,14.14547 136.008114,14.54359 C136.324341,15.02163 136.482638,15.4993 136.482638,15.97734 C136.482638,16.05689 136.482638,16.21636 136.403306,16.29591 C136.324341,16.37546 136.245376,16.45501 136.087078,16.45501 L135.850184,16.45501 C135.691886,16.45501 135.612922,16.45501 135.612922,16.37546 C135.533957,16.29591 135.533957,16.21636 135.454624,16.05689 C135.217362,15.3402 134.82217,14.86216 134.426978,14.54359 C133.952454,14.22502 133.398965,14.06555 132.687546,14.06555 C131.738865,14.06555 131.027446,14.30457 130.473957,14.86216 C129.920467,15.41975 129.683205,16.29591 129.60424,17.41072 L129.60424,18.685 C129.683205,20.19867 129.999432,20.99491 130.473957,21.5525" id="Fill-9"></path>
                        <path d="M145.890851,17.72929 L145.890851,17.72929 C145.890851,16.69403 145.653589,15.81787 145.1001,15.18073 C144.546611,14.54359 143.835192,14.22502 142.886511,14.22502 C141.93783,14.22502 141.226043,14.54359 140.672554,15.18073 C140.119432,15.81787 139.88217,16.61448 139.88217,17.64974 L139.88217,17.72929 L145.890851,17.72929 L145.890851,17.72929 Z M145.890851,14.46404 C146.60227,15.3402 146.997462,16.53493 146.997462,18.12778 L146.997462,18.44635 C146.997462,18.60545 146.918497,18.685 146.839533,18.76492 C146.7602,18.84447 146.681235,18.84447 146.523306,18.84447 L139.723873,18.84447 L139.723873,19.00394 C139.723873,19.64108 139.88217,20.19867 140.119432,20.67634 C140.356327,21.23393 140.751886,21.63205 141.147078,21.95062 C141.621603,22.26919 142.09576,22.42866 142.728214,22.42866 C143.44,22.42866 143.993122,22.26919 144.467646,22.03017 C144.941803,21.79152 145.258397,21.47295 145.416327,21.23393 C145.495292,21.07446 145.653589,20.99491 145.653589,20.91536 C145.732554,20.91536 145.811519,20.83581 145.969816,20.83581 L146.286043,20.83581 C146.365008,20.83581 146.523306,20.83581 146.60227,20.91536 C146.681235,20.99491 146.681235,21.07446 146.681235,21.15438 C146.681235,21.39303 146.523306,21.7116 146.207078,22.11009 C145.890851,22.50821 145.416327,22.82678 144.783873,23.0658 C144.151419,23.30482 143.518965,23.46392 142.728214,23.46392 C141.54227,23.46392 140.514624,23.0658 139.803205,22.26919 C139.091419,21.47295 138.617262,20.43732 138.53793,19.08349 L138.53793,17.49064 C138.617262,16.13644 139.091419,15.10118 139.803205,14.30457 C140.514624,13.50833 141.54227,13.10984 142.728214,13.10984 C144.151419,13.18976 145.179065,13.58788 145.890851,14.46404 L145.890851,14.46404 Z" id="Fill-10"></path>
                        <path d="M150.950484,11.19842 C150.871519,11.27797 150.792554,11.27797 150.634257,11.27797 L149.922838,11.27797 C149.764541,11.27797 149.685576,11.27797 149.606611,11.19842 C149.527646,11.11887 149.527646,11.03932 149.527646,10.87985 L149.527646,10.16316 C149.527646,10.00369 149.527646,9.92414 149.606611,9.84459 C149.685576,9.76467 149.764541,9.68512 149.922838,9.68512 L150.634257,9.68512 C150.792554,9.68512 150.871519,9.76467 150.950484,9.84459 C151.029816,9.92414 151.108781,10.00369 151.108781,10.16316 L151.108781,10.87985 C151.108781,11.03932 151.029816,11.11887 150.950484,11.19842 L150.950484,11.19842 Z M149.843873,13.50833 C149.922838,13.42841 150.001803,13.42841 150.1601,13.42841 L150.476327,13.42841 C150.634257,13.42841 150.713589,13.42841 150.792554,13.50833 C150.871519,13.58788 150.871519,13.66743 150.871519,13.8269 L150.871519,23.78249 C150.871519,24.81812 150.634257,25.61436 150.239065,26.17195 C149.843873,26.72954 149.053122,27.04811 148.025476,27.04811 L147.946144,27.04811 C147.788214,27.04811 147.709249,27.04811 147.629917,26.96856 C147.550952,26.88864 147.550952,26.80909 147.550952,26.64999 L147.550952,26.41097 C147.550952,26.2515 147.550952,26.17195 147.629917,26.0924 C147.709249,26.01248 147.788214,26.01248 147.946144,26.01248 L148.025476,26.01248 C148.736895,26.01248 149.211419,25.85338 149.369349,25.45526 C149.606611,25.05677 149.685576,24.5791 149.685576,23.86241 L149.685576,13.90645 C149.685576,13.66743 149.764541,13.50833 149.843873,13.50833 L149.843873,13.50833 Z" id="Fill-11"></path>
                        <path d="M166.999833,23.2249 C166.920868,23.30482 166.841903,23.30482 166.683606,23.30482 L166.367379,23.30482 C166.209449,23.30482 166.130117,23.30482 166.051152,23.2249 C165.972187,23.14535 165.972187,23.0658 165.972187,22.90633 L165.972187,17.57019 C165.972187,16.53493 165.734925,15.73832 165.181436,15.18073 C164.707279,14.62314 163.995492,14.30457 163.046811,14.30457 C162.09813,14.30457 161.386711,14.62314 160.833222,15.18073 C160.279733,15.73832 160.042471,16.53493 160.042471,17.57019 L160.042471,22.90633 C160.042471,23.0658 160.042471,23.14535 159.963506,23.2249 C159.884541,23.30482 159.805209,23.30482 159.647279,23.30482 L159.331052,23.30482 C159.172755,23.30482 159.09379,23.30482 159.014825,23.2249 C158.93586,23.14535 158.93586,23.0658 158.93586,22.90633 L158.93586,13.74698 C158.93586,13.58788 158.93586,13.50833 159.014825,13.42841 C159.09379,13.34886 159.172755,13.34886 159.331052,13.34886 L159.647279,13.34886 C159.805209,13.34886 159.884541,13.34886 159.963506,13.42841 C160.042471,13.50833 160.042471,13.58788 160.042471,13.74698 L160.042471,14.62314 C160.43803,14.14547 160.833222,13.74698 161.386711,13.50833 C161.860868,13.26931 162.493322,13.10984 163.284073,13.10984 C164.548982,13.10984 165.497663,13.50833 166.130117,14.30457 C166.841903,15.10118 167.15813,16.13644 167.15813,17.41072 L167.15813,22.82678 C167.15813,23.0658 167.078798,23.14535 166.999833,23.2249" id="Fill-12"></path>
                        <path d="M171.190117,23.2249 C171.111152,23.30482 171.03182,23.30482 170.87389,23.30482 L170.557663,23.30482 C170.399366,23.30482 170.320401,23.30482 170.241436,23.2249 C170.162471,23.14535 170.162471,23.0658 170.162471,22.90633 L170.162471,13.74698 C170.162471,13.58788 170.162471,13.50833 170.241436,13.42841 C170.320401,13.34886 170.399366,13.34886 170.557663,13.34886 L170.87389,13.34886 C171.03182,13.34886 171.111152,13.34886 171.190117,13.42841 C171.269082,13.50833 171.269082,13.58788 171.269082,13.74698 L171.269082,22.90633 C171.269082,23.0658 171.269082,23.14535 171.190117,23.2249 L171.190117,23.2249 Z M171.427379,11.19842 C171.348047,11.27797 171.269082,11.27797 171.111152,11.27797 L170.399366,11.27797 C170.241436,11.27797 170.162471,11.27797 170.083139,11.19842 C170.004174,11.11887 170.004174,11.03932 170.004174,10.87985 L170.004174,10.16316 C170.004174,10.00369 170.004174,9.92414 170.083139,9.84459 C170.162471,9.76467 170.241436,9.68512 170.399366,9.68512 L171.111152,9.68512 C171.269082,9.68512 171.348047,9.76467 171.427379,9.84459 C171.506344,9.92414 171.585309,10.00369 171.585309,10.16316 L171.585309,10.87985 C171.506344,11.03932 171.506344,11.11887 171.427379,11.19842 L171.427379,11.19842 Z" id="Fill-13"></path>
                        <path d="M178.305409,11.35789 C178.226444,11.43744 178.147479,11.43744 177.989182,11.43744 L177.040501,11.43744 C176.882571,11.43744 176.803239,11.43744 176.724274,11.35789 C176.645309,11.27797 176.645309,11.19842 176.645309,11.03932 L176.645309,10.08324 C176.645309,9.92414 176.645309,9.84459 176.724274,9.76467 C176.803239,9.68512 176.882571,9.60557 177.040501,9.60557 L177.989182,9.60557 C178.147479,9.60557 178.226444,9.68512 178.305409,9.76467 C178.384741,9.84459 178.463706,9.92414 178.463706,10.08324 L178.463706,11.03932 C178.463706,11.19842 178.384741,11.27797 178.305409,11.35789 L178.305409,11.35789 Z M181.30975,22.34911 C181.388715,22.42866 181.388715,22.50821 181.388715,22.66731 L181.388715,22.90633 C181.388715,23.0658 181.388715,23.14535 181.30975,23.2249 C181.230785,23.30482 181.15182,23.30482 180.993523,23.30482 L174.03616,23.30482 C173.87823,23.30482 173.798898,23.30482 173.719933,23.2249 C173.640968,23.14535 173.640968,23.0658 173.640968,22.90633 L173.640968,22.58776 C173.640968,22.42866 173.719933,22.26919 173.87823,22.03054 L179.491352,14.54359 L174.273422,14.54359 C174.115492,14.54359 174.03616,14.54359 173.957195,14.46404 C173.87823,14.38449 173.87823,14.30457 173.87823,14.14547 L173.87823,13.90645 C173.87823,13.74698 173.87823,13.66743 173.957195,13.58788 C174.03616,13.50833 174.115492,13.50833 174.273422,13.50833 L180.677295,13.50833 C180.835593,13.50833 180.914558,13.50833 180.993523,13.58788 C181.072487,13.66743 181.072487,13.74698 181.072487,13.90645 L181.072487,14.22502 C181.072487,14.38449 180.993523,14.54359 180.835593,14.78261 L175.301068,22.26919 L181.072487,22.26919 C181.15182,22.18964 181.230785,22.26919 181.30975,22.34911 L181.30975,22.34911 Z" id="Fill-14"></path>
                        <path d="M197.121836,21.79152 C197.200801,21.87107 197.280134,22.03054 197.280134,22.18964 L197.280134,22.90633 C197.280134,23.0658 197.200801,23.14535 197.121836,23.30482 C197.042871,23.38437 196.884574,23.46392 196.726644,23.46392 L188.978531,23.46392 C188.820601,23.46392 188.741636,23.38437 188.583339,23.30482 C188.504374,23.2249 188.425409,23.0658 188.425409,22.90633 L188.425409,10.48173 C188.425409,10.32226 188.504374,10.24271 188.583339,10.08324 C188.662304,10.00369 188.820601,9.92414 188.978531,9.92414 L189.769282,9.92414 C189.927579,9.92414 190.006544,10.00369 190.164474,10.08324 C190.243806,10.16316 190.322771,10.32226 190.322771,10.48173 L190.322771,21.63205 L196.805609,21.63205 C196.884574,21.63205 196.963907,21.63205 197.121836,21.79152" id="Fill-15"></path>
                        <path d="M201.074858,21.63205 L207.478731,21.63205 C207.637028,21.63205 207.715993,21.7116 207.87429,21.79152 C207.953255,21.87107 208.03222,22.03054 208.03222,22.18964 L208.03222,22.90633 C208.03222,23.0658 207.953255,23.14535 207.87429,23.30482 C207.794958,23.38437 207.637028,23.46392 207.478731,23.46392 L199.730985,23.46392 C199.572688,23.46392 199.493723,23.38437 199.335793,23.30482 C199.256461,23.2249 199.177496,23.0658 199.177496,22.90633 L199.177496,10.48173 C199.177496,10.32226 199.256461,10.24271 199.335793,10.08324 C199.414758,10.00369 199.572688,9.92414 199.730985,9.92414 L207.241836,9.92414 C207.399766,9.92414 207.478731,10.00369 207.637028,10.08324 C207.715993,10.16316 207.794958,10.32226 207.794958,10.48173 L207.794958,11.19842 C207.794958,11.35789 207.715993,11.43744 207.637028,11.59654 C207.558063,11.67646 207.399766,11.75601 207.241836,11.75601 L200.995893,11.75601 L200.995893,15.81787 L206.846277,15.81787 C207.004574,15.81787 207.083539,15.89742 207.241836,15.97734 C207.320801,16.05689 207.399766,16.21636 207.399766,16.37546 L207.399766,17.09215 C207.399766,17.25162 207.320801,17.33117 207.241836,17.49064 C207.162504,17.57019 207.004574,17.64974 206.846277,17.64974 L200.995893,17.64974 L200.995893,21.63205 L201.074858,21.63205" id="Fill-16"></path>
                        <path d="M219.812321,22.58776 C219.97025,22.74723 219.97025,22.82678 219.97025,22.90633 C219.97025,22.98625 219.891285,23.14535 219.812321,23.2249 C219.733356,23.30482 219.654023,23.38437 219.496093,23.38437 L218.31015,23.38437 C218.072888,23.38437 217.835626,23.30482 217.598731,23.0658 L212.222504,17.88876 L212.222504,22.82678 C212.222504,22.98625 212.143539,23.0658 212.064207,23.2249 C211.985242,23.30482 211.827312,23.38437 211.669015,23.38437 L210.878631,23.38437 C210.720334,23.38437 210.641369,23.30482 210.483072,23.2249 C210.404107,23.14535 210.325142,22.98625 210.325142,22.82678 L210.325142,10.40181 C210.325142,10.24271 210.404107,10.16316 210.483072,10.00369 C210.562404,9.92414 210.720334,9.84459 210.878631,9.84459 L211.669015,9.84459 C211.827312,9.84459 211.906277,9.92414 212.064207,10.00369 C212.143539,10.08324 212.222504,10.24271 212.222504,10.40181 L212.222504,14.86216 L217.282504,10.16316 C217.440434,10.00369 217.677696,9.84459 217.993923,9.84459 L219.100902,9.84459 C219.179866,9.84459 219.337796,9.92414 219.417129,10.00369 C219.496093,10.08324 219.575058,10.16316 219.575058,10.32226 C219.575058,10.40181 219.496093,10.56128 219.417129,10.64083 L213.329482,16.29591 L219.812321,22.58776" id="Fill-17"></path>
                    </g>
                </g>
            </g>
        </g>
    </g>
</svg>