<svg xmlns="http://www.w3.org/2000/svg" viewBox="0 0 408.21 59.61"><title>wnl-horyzontalnie</title><path d="M40.71,13.57a.57.57,0,0,1,.53-.53c.27-.27.53-.27,1.06-.27h1.33a.94.94,0,0,1,1.07,1.06v.8l-9,29.8a5.79,5.79,0,0,1-.8,1.33,2,2,0,0,1-1.33.27H32.47a2,2,0,0,1-2.13-1.6l-8-25.28-8,25.28A2,2,0,0,1,12.24,46H11.18a2,2,0,0,1-1.33-.27A2.85,2.85,0,0,1,9,44.44L0,14.64v-.8A1,1,0,0,1,.27,13a1,1,0,0,1,.8-.27H2.39A1.6,1.6,0,0,1,3.46,13l.53.53,8,26.61,8.51-26.34c0-.26.27-.53.53-.8a1.6,1.6,0,0,1,1.06-.27h1.33c.53,0,.8,0,1.06.27s.53.53.53.8l8.51,26.34,7.18-26.61ZM55.88,45.51c-.26.27-.53.27-1.06.27H53.75c-.53,0-.8,0-1.07-.27s-.27-.53-.27-1.06V13.84c0-.53,0-.8.27-1.06s.53-.27,1.07-.27h1.06c.53,0,.8,0,1.06.27s.27.53.27,1.06v30.6c.27.53,0,.8-.27,1.06m.8-40.18c-.27.27-.53.27-1.06.27h-2.4c-.53,0-.8,0-1.06-.27s-.27-.53-.27-1.07V1.86c0-.53,0-.8.27-1.07A1.38,1.38,0,0,1,53.22.27h2.4A1.38,1.38,0,0,1,56.68.8a1.38,1.38,0,0,1,.53,1.07V4.26c-.27.53-.27.8-.53,1.07M89.41,27.14a14.11,14.11,0,0,0-2.66-8.51,9.28,9.28,0,0,0-7.45-3.19,9.28,9.28,0,0,0-7.45,3.19c-1.86,2.13-2.66,4.79-2.66,8.25v.27H89.41Zm.27-10.91c2.39,2.93,3.73,6.92,3.73,12.24v1.06a1.39,1.39,0,0,1-.53,1.06c-.27.27-.53.27-1.07.27H68.92v.53A12.39,12.39,0,0,0,70.25,37a11.11,11.11,0,0,0,3.46,4.26A9,9,0,0,0,79,42.84a12.68,12.68,0,0,0,5.85-1.33,8.4,8.4,0,0,0,3.19-2.66c.27-.53.8-.8.8-1.06.27,0,.53-.27,1.07-.27H91a1.59,1.59,0,0,1,1.06.27,1,1,0,0,1,.27.8A5,5,0,0,1,91,41.25a10.71,10.71,0,0,1-3.73,2.93A18.08,18.08,0,0,1,82,46a6.08,6.08,0,0,0-3.19,1.6,4.52,4.52,0,0,0-1.07,3.46A5.27,5.27,0,0,0,79,54.82a5.06,5.06,0,0,0,3.46,1.33h1.06c.53,0,.8,0,1.06.27s.27.53.27,1.06v.8c0,.53,0,.8-.27,1.06s-.53.27-1.06.27H82.23c-2.66,0-4.79-.8-6.12-2.4a8.63,8.63,0,0,1-2.4-6.39A9.47,9.47,0,0,1,75,45.77a12.44,12.44,0,0,1-7.18-5.06c-1.86-2.4-2.66-5.59-2.93-9.31V26.08a16.87,16.87,0,0,1,4.26-10.65,12.83,12.83,0,0,1,9.85-4c4.52.53,8,1.86,10.65,4.79ZM107,39.92c1.86,1.86,4.26,2.66,7.45,2.66a10.12,10.12,0,0,0,5.86-1.6,9.1,9.1,0,0,0,3.46-5.06c.27-.53.53-.8.53-1.06s.53-.27.8-.27h.8a2,2,0,0,1,1.07.53c.27.27.53.53.27,1.06A8.58,8.58,0,0,1,125.6,41a9.09,9.09,0,0,1-4.52,3.72,20.32,20.32,0,0,1-7.19,1.6q-6.78,0-10.38-4c-2.4-2.66-3.73-6.12-3.73-10.91V26.08c0-4.79,1.33-8.25,3.73-10.91s5.85-4,10.38-4a14.37,14.37,0,0,1,7.19,1.6,16.16,16.16,0,0,1,4.52,3.72,8.58,8.58,0,0,1,1.6,4.79,1.6,1.6,0,0,1-.27,1.07,1.38,1.38,0,0,1-1.07.53h-.8c-.53,0-.8,0-.8-.27-.27-.27-.27-.53-.53-1.06a10.64,10.64,0,0,0-3.46-5.06,10.13,10.13,0,0,0-5.86-1.6c-3.19,0-5.59.8-7.45,2.66s-2.66,4.79-2.93,8.52v4.26c.27,5.06,1.33,7.72,2.93,9.58m51.89-12.77c0-3.46-.8-6.39-2.66-8.51a10.29,10.29,0,0,0-14.9,0c-1.86,2.13-2.66,4.79-2.66,8.25v.27Zm0-10.91c2.39,2.93,3.73,6.92,3.73,12.24v1.06a1.39,1.39,0,0,1-.53,1.06c-.27.27-.53.27-1.07.27H138.11v.53A12.37,12.37,0,0,0,139.44,37a11.11,11.11,0,0,0,3.46,4.26,9,9,0,0,0,5.32,1.6,12.68,12.68,0,0,0,5.85-1.33,8.4,8.4,0,0,0,3.19-2.66c.27-.53.8-.8.8-1.06.27,0,.53-.27,1.07-.27h1.06a1.6,1.6,0,0,1,1.07.27,1,1,0,0,1,.27.8,5.85,5.85,0,0,1-1.6,3.19A10.82,10.82,0,0,1,155.14,45a18.85,18.85,0,0,1-6.92,1.33,12.84,12.84,0,0,1-9.85-4,16.86,16.86,0,0,1-4.26-10.65V26.35a16.86,16.86,0,0,1,4.26-10.65,12.84,12.84,0,0,1,9.85-4C153,12,156.47,13.31,158.87,16.23Zm17-10.91c-.27.27-.53.27-1.07.27h-2.39c-.53,0-.8,0-1.06-.27s-.27-.53-.27-1.07V1.86c0-.53,0-.8.27-1.07a1.38,1.38,0,0,1,1.06-.53h2.39A1.38,1.38,0,0,1,175.9.8a1.38,1.38,0,0,1,.53,1.07V4.26a1.38,1.38,0,0,1-.53,1.07M172.17,13c.27-.27.53-.27,1.07-.27h1.06c.53,0,.8,0,1.07.27s.27.53.27,1.06V47.37a13.58,13.58,0,0,1-2.13,8c-1.33,1.86-4,2.93-7.45,2.93h-.27c-.53,0-.8,0-1.07-.26s-.27-.53-.27-1.06v-.8c0-.53,0-.8.27-1.06s.53-.27,1.07-.27h.27c2.39,0,4-.53,4.52-1.86a9.94,9.94,0,0,0,1.07-5.32V14.37c0-.8.27-1.33.53-1.33m57.74,32.47c-.27.27-.53.27-1.06.27h-1.06c-.53,0-.8,0-1.07-.27s-.27-.53-.27-1.06V26.61c0-3.46-.8-6.12-2.66-8a9,9,0,0,0-7.18-2.93,10,10,0,0,0-7.45,2.93c-1.86,1.86-2.66,4.52-2.66,8V44.44c0,.53,0,.8-.27,1.06s-.53.27-1.07.27h-1.06c-.53,0-.8,0-1.07-.27s-.27-.53-.27-1.06V13.84c0-.53,0-.8.27-1.06s.53-.27,1.07-.27h1.06c.53,0,.8,0,1.07.27s.27.53.27,1.06v2.93A12.17,12.17,0,0,1,211,13a14.26,14.26,0,0,1,6.39-1.33q6.39,0,9.58,4c2.39,2.66,3.46,6.12,3.46,10.38v18.1a1.56,1.56,0,0,1-.53,1.33m14.1,0c-.27.27-.53.27-1.06.27h-1.06c-.53,0-.8,0-1.07-.27s-.27-.53-.27-1.06V13.84c0-.53,0-.8.27-1.06s.53-.27,1.07-.27H243c.53,0,.8,0,1.06.27s.27.53.27,1.06v30.6c0,.53,0,.8-.27,1.06m.8-40.18c-.27.27-.53.27-1.07.27h-2.39c-.53,0-.8,0-1.07-.27S240,4.79,240,4.26V1.86c0-.53,0-.8.27-1.07a1.38,1.38,0,0,1,1.07-.53h2.39a1.38,1.38,0,0,1,1.07.53,1.38,1.38,0,0,1,.53,1.07V4.26c-.27.53-.27.8-.53,1.07M268,5.85c-.27.27-.53.27-1.07.27h-3.19c-.53,0-.8,0-1.07-.27s-.27-.53-.27-1.06V1.6c0-.53,0-.8.27-1.06A1.38,1.38,0,0,1,263.71,0h3.19A1.39,1.39,0,0,1,268,.53a1.38,1.38,0,0,1,.53,1.06V4.79A1.38,1.38,0,0,1,268,5.85m10.11,36.72c.27.27.27.53.27,1.06v.8c0,.53,0,.8-.27,1.06s-.53.26-1.07.26H253.6c-.53,0-.8,0-1.07-.26s-.27-.53-.27-1.06V43.38a3.53,3.53,0,0,1,.8-1.86L272,16.5H254.4c-.53,0-.8,0-1.07-.27s-.27-.53-.27-1.07v-.8c0-.53,0-.8.27-1.07s.53-.27,1.07-.27H276c.53,0,.8,0,1.07.27s.27.53.27,1.07v1.06a3.54,3.54,0,0,1-.8,1.86l-18.63,25h19.42c.27-.27.53,0,.8.27m53.22-1.86a2,2,0,0,1,.53,1.33v2.4c0,.53-.27.8-.53,1.33a2,2,0,0,1-1.33.53H303.9c-.53,0-.8-.27-1.33-.53a2,2,0,0,1-.53-1.33V2.93c0-.53.27-.8.53-1.33a2,2,0,0,1,1.33-.53h2.66c.53,0,.8.27,1.33.53a2,2,0,0,1,.53,1.33V40.18h21.82c.27,0,.53,0,1.07.53m13.31-.53h21.55c.53,0,.8.27,1.33.53A2,2,0,0,1,368,42v2.4c0,.53-.27.8-.53,1.33a2,2,0,0,1-1.33.53H340.09c-.53,0-.8-.27-1.33-.53a2,2,0,0,1-.53-1.33V2.93c0-.53.27-.8.53-1.33a2,2,0,0,1,1.33-.53h25.28c.53,0,.8.27,1.33.53a2,2,0,0,1,.53,1.33V5.32c0,.53-.27.8-.53,1.33a2,2,0,0,1-1.33.53h-21V20.76H364c.53,0,.8.27,1.33.53a2,2,0,0,1,.53,1.33V25c0,.53-.27.8-.53,1.33a2,2,0,0,1-1.33.53H344.34V40.18Zm63.07,3.19c.53.53.53.8.53,1.06a2,2,0,0,1-.53,1.06,1.38,1.38,0,0,1-1.07.53h-4a3.24,3.24,0,0,1-2.4-1.06l-18.1-17.3v16.5c0,.53-.27.8-.53,1.33a2,2,0,0,1-1.33.53h-2.66c-.53,0-.8-.26-1.33-.53a2,2,0,0,1-.53-1.33V2.66c0-.53.27-.8.53-1.33A2,2,0,0,1,377.61.8h2.66c.53,0,.8.27,1.33.53a2,2,0,0,1,.53,1.33v14.9l17-15.7A3.37,3.37,0,0,1,401.56.8h3.72a2,2,0,0,1,1.07.53,1.39,1.39,0,0,1,.53,1.06,2,2,0,0,1-.53,1.07L385.86,22.35l21.82,21Z" style="fill:#242d47"/></svg>