<svg width="220" height="37" viewBox="0 0 220 37" xmlns="http://www.w3.org/2000/svg"><g fill="#242D47" fill-rule="evenodd"><path d="M81.8227379 14.69085c-.05399-.0037-.1652755.04255-.2725209.03478-.3221035-.02368-.5791986-.20572-.7169282-.54205-1.4456093-3.91275-4.9365943-7.15876-9.419232-8.62877-.4216361-.13949-.6592655-.592-.5204341-1.01713.1384641-.42476.5876461-.66378 1.0092821-.52429 4.9009683 1.66352 8.7981636 5.26584 10.3734224 9.62296.1300167.44474-.0620701.8658-.4535893 1.0545zM21.4050083 33.82207h-.2692153c-9.9609683 0-18.09105176-6.83464-18.09105176-15.29617 0-8.40751 8.07646076-15.29617 18.09105176-15.29617h21.4351252l-.044808 30.59234H21.4050083zM66.6372287.24642H21.081803C9.45191987.24642.02974958 8.43711.02974958 18.5259S9.50590985 36.80538 21.081803 36.80538h45.5014357c10.7660434 0 19.5399666-8.2325 19.5399666-18.30649S77.4029048.24642 66.6372287.24642z"/><path d="M35.433222 20.3722c-.7536561 0-1.3460768-.59681-1.3460768-1.35605s.5924207-1.35605 1.3460768-1.35605c.7540234 0 1.3460768.59681 1.3460768 1.35605s-.5920534 1.35605-1.3460768 1.35605zM20.6267446 9.08979c-.484808 0-.9152588-.43364-.9152588-.92204 0-.48803.4304508-.92204.9152588-.92204.4844407 0 .9152587.43401.9152587.92204 0 .4884-.430818.92204-.9152587.92204zm14.8064774 6.94305c-.7830384 0-1.5014357.32079-2.0350918.83472L22.4851753 8.82413c.0822704-.22015.1336895-.45695.1336895-.7104 0-1.13923-.9152588-2.00688-1.9921202-2.00688-1.1308514 0-1.9921202.92204-1.9921202 2.00688 0 1.13886.9152587 2.00688 1.9921202 2.00688.4546911 0 .8752253-.16169 1.2156928-.42624l10.9225042 8.05083c-.1854758.38739-.2927212.8177-.2927212 1.27095 0 .43253.0973288.84471.2673789 1.21841l-10.8732888 7.63458c-.3441402-.27639-.7738564-.44548-1.2395659-.44548-1.1308514 0-1.9921202.92204-1.9921202 2.00688 0 1.13886.9152587 2.00688 1.9921202 2.00688 1.0768614 0 1.9921202-.92204 1.9921202-2.00688 0-.24235-.0488481-.46842-.1245075-.68006l10.860434-7.6257c.5376962.53835 1.2744574.87468 2.0784307.87468 1.6692822 0 2.961369-1.35605 2.961369-2.98331s-1.3460768-2.98331-2.961369-2.98331zM12.2810684 25.57921c-.2974958 0-.5384307.24309-.5384307.54242 0 .2997.2409349.54242.5384307.54242.2974959 0 .5384308-.24272.5384308-.54242 0-.29933-.2409349-.54242-.5384308-.54242M9.85813022 22.65029c-.50537563 0-.91525877.41292-.91525877.92204 0 .50949.40988314.92204.91525877.92204.50574288 0 .91525878-.41255.91525878-.92204 0-.50912-.4095159-.92204-.91525878-.92204M8.72764608 17.00927c-.96924875 0-1.72327212.75924-1.72327212 1.73567s.75402337 1.73567 1.72327212 1.73567c.96888147 0 1.72290482-.75924 1.72290482-1.73567s-.75402335-1.73567-1.72290482-1.73567M110.787813 13.66743c0-.07955.078965-.1591.158297-.1591.078965-.07992.15793-.07992.316227-.07992h.395192c.078965 0 .15793 0 .237262.07992.078965.07955.078965.1591.078965.23865v.23902l-2.688113 8.92033c-.078965.15947-.15793.31857-.237262.39849-.078965.07955-.236895.07955-.395192.07955h-.316227c-.316227 0-.55349-.15947-.632454-.47804l-2.371887-7.56613-2.371886 7.56613c-.078965.31857-.316227.47804-.632455.47804h-.316227c-.157929 0-.316227 0-.395192-.07955-.078965-.07992-.158297-.15947-.237262-.39849L98.6914858 13.986v-.23902c0-.07955 0-.1591.078965-.23865.0793322-.07992.1582971-.07992.2372621-.07992h.3955592c.078965 0 .2368948 0 .3162271.07992l.1579298.1591 2.371887 7.96462 2.529816-7.88507c0-.07955.078965-.1591.158297-.23865.078965-.07992.237262-.07992.316227-.07992h.395192c.158297 0 .237262 0 .316227.07992.078965.07955.158297.1591.158297.23865l2.529817 7.88507 2.134624-7.96462M115.294324 23.2249c-.078965.07992-.158297.07992-.316227.07992h-.316227c-.158297 0-.237262 0-.316227-.07992-.079332-.07955-.079332-.1591-.079332-.31857v-9.15935c0-.1591 0-.23865.079332-.31857.078965-.07955.15793-.07955.316227-.07955h.316227c.15793 0 .237262 0 .316227.07955.078965.07992.078965.15947.078965.31857v9.15935c.078965.15947 0 .23902-.078965.31857zm.237262-12.02648c-.079332.07955-.158297.07955-.316227.07955h-.711786c-.15793 0-.237262 0-.316227-.07955-.078965-.07955-.078965-.1591-.078965-.31857v-.71669c0-.15947 0-.23902.078965-.31857.078965-.07992.158297-.15947.316227-.15947h.711786c.15793 0 .236895.07955.316227.15947.078965.07955.15793.1591.15793.31857v.71669c-.078965.15947-.078965.23902-.15793.31857zM125.256027 17.72929c0-1.03526-.316227-1.91142-.790752-2.54856-.553489-.63714-1.264908-.95571-2.213589-.95571-.948681 0-1.660467.31857-2.213956.95571-.553122.63714-.790384 1.43375-.790384 2.46901v.07955h6.008681zm.078965-3.26525c.711419.87616 1.106978 2.07089 1.106978 3.66374v.31857c0 .1591-.079332.23865-.158297.31857-.078965.07955-.15793.07955-.316227.07955h-6.799065v.15947c0 .63714.15793 1.19473.395192 1.6724.237262.55759.632454.95571 1.027646 1.27428.474524.31857.948681.47804 1.581502.47804.711419 0 1.264908-.15947 1.739065-.39849.474525-.23865.790752-.55722.948681-.79624.079333-.15947.237263-.23902.237263-.31857.078964 0 .158297-.07955.316227-.07955h.316227c.078965 0 .237262 0 .316227.07955.079332.07955.079332.1591.079332.23902 0 .23865-.158297.47767-.395559.79624-.237262.31857-.632454.63714-1.106611.87616-.474525.23902-1.028014.47804-1.581503.55759-.395192.07955-.711419.23902-.948681.47767-.237262.23902-.316227.55759-.316227 1.03563 0 .47767.158297.87616.395559 1.11481.236895.23902.632454.39849 1.027646.39849h.316227c.15793 0 .237262 0 .316227.07955.078965.07955.078965.15947.078965.31857v.23902c0 .1591 0 .23902-.078965.31857-.078965.07955-.158297.07955-.316227.07955h-.395192c-.790751 0-1.423205-.23902-1.818397-.71669-.474524-.47804-.711786-1.11518-.711786-1.91142 0-.63714.158297-1.11518.395559-1.5133-.869716-.23902-1.581503-.71706-2.134624-1.5133-.55349-.71706-.790752-1.67277-.869717-2.78758v-1.59322c.078965-1.35383.55349-2.38909 1.264909-3.1857.711419-.79661 1.739432-1.19473 2.925375-1.19473 1.343873.15947 2.371519.55759 3.162271 1.43375zM130.473957 21.5525c.553489.55759 1.264908.79661 2.213589.79661.711419 0 1.264908-.15947 1.739432-.47804.474157-.31857.790384-.79661 1.027646-1.5133.079333-.1591.158298-.23902.158298-.31857 0-.07955.157929-.07955.237262-.07955h.236894c.079333 0 .237263.07955.316228.1591.079332.07992.158297.15947.079332.31857 0 .47804-.158297.95571-.474524 1.43375-.316228.47804-.71142.87616-1.343874 1.11518-.632454.23865-1.34424.47767-2.134624.47767-1.34424 0-2.371886-.39812-3.083673-1.19473-.711419-.79624-1.106611-1.83187-1.106611-3.26525v-1.59322c0-1.43338.395192-2.46901 1.106611-3.26525.711787-.79661 1.739433-1.19473 3.083673-1.19473.869716 0 1.581135.1591 2.134624.47767.553122.31857 1.027646.71706 1.343874 1.11518.316227.47804.474524.95571.474524 1.43375 0 .07955 0 .23902-.079332.31857-.078965.07955-.15793.1591-.316228.1591h-.236894c-.158298 0-.237262 0-.237262-.07955-.078965-.07955-.078965-.1591-.158298-.31857-.237262-.71669-.632454-1.19473-1.027646-1.5133-.474524-.31857-1.028013-.47804-1.739432-.47804-.948681 0-1.6601.23902-2.213589.79661-.55349.55759-.790752 1.43375-.869717 2.54856V18.685c.078965 1.51367.395192 2.30991.869717 2.8675M145.890851 17.72929c0-1.03526-.237262-1.91142-.790751-2.54856-.553489-.63714-1.264908-.95571-2.213589-.95571-.948681 0-1.660468.31857-2.213957.95571-.553122.63714-.790384 1.43375-.790384 2.46901v.07955h6.008681zm0-3.26525c.711419.87616 1.106611 2.07089 1.106611 3.66374v.31857c0 .1591-.078965.23865-.157929.31857-.079333.07955-.158298.07955-.316227.07955h-6.799433v.15947c0 .63714.158297 1.19473.395559 1.6724.236895.55759.632454.95571 1.027646 1.27428.474525.31857.948682.47804 1.581136.47804.711786 0 1.264908-.15947 1.739432-.39849.474157-.23865.790751-.55722.948681-.79624.078965-.15947.237262-.23902.237262-.31857.078965 0 .15793-.07955.316227-.07955h.316227c.078965 0 .237263 0 .316227.07955.078965.07955.078965.1591.078965.23902 0 .23865-.157929.55722-.474157.95571-.316227.39812-.790751.71669-1.423205.95571-.632454.23902-1.264908.39812-2.055659.39812-1.185944 0-2.21359-.39812-2.925009-1.19473-.711786-.79624-1.185943-1.83187-1.265275-3.1857v-1.59285c.079332-1.3542.553489-2.38946 1.265275-3.18607.711419-.79624 1.739065-1.19473 2.925009-1.19473 1.423205.07992 2.450851.47804 3.162637 1.3542zM150.950484 11.19842c-.078965.07955-.15793.07955-.316227.07955h-.711419c-.158297 0-.237262 0-.316227-.07955-.078965-.07955-.078965-.1591-.078965-.31857v-.71669c0-.15947 0-.23902.078965-.31857.078965-.07992.15793-.15947.316227-.15947h.711419c.158297 0 .237262.07955.316227.15947.079332.07955.158297.1591.158297.31857v.71669c0 .15947-.078965.23902-.158297.31857zm-1.106611 2.30991c.078965-.07992.15793-.07992.316227-.07992h.316227c.15793 0 .237262 0 .316227.07992.078965.07955.078965.1591.078965.31857v9.95559c0 1.03563-.237262 1.83187-.632454 2.38946s-1.185943.87616-2.213589.87616h-.079332c-.15793 0-.236895 0-.316227-.07955-.078965-.07992-.078965-.15947-.078965-.31857v-.23902c0-.15947 0-.23902.078965-.31857.079332-.07992.158297-.07992.316227-.07992h.079332c.711419 0 1.185943-.1591 1.343873-.55722.237262-.39849.316227-.87616.316227-1.59285v-9.95596c0-.23902.078965-.39812.158297-.39812zM166.999833 23.2249c-.078965.07992-.15793.07992-.316227.07992h-.316227c-.15793 0-.237262 0-.316227-.07992-.078965-.07955-.078965-.1591-.078965-.31857v-5.33614c0-1.03526-.237262-1.83187-.790751-2.38946-.474157-.55759-1.185944-.87616-2.134625-.87616-.948681 0-1.6601.31857-2.213589.87616-.553489.55759-.790751 1.3542-.790751 2.38946v5.33614c0 .15947 0 .23902-.078965.31857-.078965.07992-.158297.07992-.316227.07992h-.316227c-.158297 0-.237262 0-.316227-.07992-.078965-.07955-.078965-.1591-.078965-.31857v-9.15935c0-.1591 0-.23865.078965-.31857.078965-.07955.15793-.07955.316227-.07955h.316227c.15793 0 .237262 0 .316227.07955.078965.07992.078965.15947.078965.31857v.87616c.395559-.47767.790751-.87616 1.34424-1.11481.474157-.23902 1.106611-.39849 1.897362-.39849 1.264909 0 2.21359.39849 2.846044 1.19473.711786.79661 1.028013 1.83187 1.028013 3.10615v5.41606c0 .23902-.079332.31857-.158297.39812M171.190117 23.2249c-.078965.07992-.158297.07992-.316227.07992h-.316227c-.158297 0-.237262 0-.316227-.07992-.078965-.07955-.078965-.1591-.078965-.31857v-9.15935c0-.1591 0-.23865.078965-.31857.078965-.07955.15793-.07955.316227-.07955h.316227c.15793 0 .237262 0 .316227.07955.078965.07992.078965.15947.078965.31857v9.15935c0 .15947 0 .23902-.078965.31857zm.237262-12.02648c-.079332.07955-.158297.07955-.316227.07955h-.711786c-.15793 0-.236895 0-.316227-.07955-.078965-.07955-.078965-.1591-.078965-.31857v-.71669c0-.15947 0-.23902.078965-.31857.079332-.07992.158297-.15947.316227-.15947h.711786c.15793 0 .236895.07955.316227.15947.078965.07955.15793.1591.15793.31857v.71669c-.078965.15947-.078965.23902-.15793.31857zM178.305409 11.35789c-.078965.07955-.15793.07955-.316227.07955h-.948681c-.15793 0-.237262 0-.316227-.07955-.078965-.07992-.078965-.15947-.078965-.31857v-.95608c0-.1591 0-.23865.078965-.31857.078965-.07955.158297-.1591.316227-.1591h.948681c.158297 0 .237262.07955.316227.1591.079332.07992.158297.15947.158297.31857v.95608c0 .1591-.078965.23865-.158297.31857zm3.004341 10.99122c.078965.07955.078965.1591.078965.3182v.23902c0 .15947 0 .23902-.078965.31857-.078965.07992-.15793.07992-.316227.07992h-6.957363c-.15793 0-.237262 0-.316227-.07992-.078965-.07955-.078965-.1591-.078965-.31857v-.31857c0-.1591.078965-.31857.237262-.55722l5.613122-7.48695h-5.21793c-.15793 0-.237262 0-.316227-.07955-.078965-.07955-.078965-.15947-.078965-.31857v-.23902c0-.15947 0-.23902.078965-.31857.078965-.07955.158297-.07955.316227-.07955h6.403873c.158298 0 .237263 0 .316228.07955.078964.07955.078964.1591.078964.31857v.31857c0 .15947-.078964.31857-.236894.55759l-5.534525 7.48658h5.771419c.079333-.07955.158298 0 .237263.07992zM197.121836 21.79152c.078965.07955.158298.23902.158298.39812v.71669c0 .15947-.079333.23902-.158298.39849-.078965.07955-.237262.1591-.395192.1591h-7.748113c-.15793 0-.236895-.07955-.395192-.1591-.078965-.07992-.15793-.23902-.15793-.39849v-12.4246c0-.15947.078965-.23902.15793-.39849.078965-.07955.237262-.1591.395192-.1591h.790751c.158297 0 .237262.07955.395192.1591.079332.07992.158297.23902.158297.39849v11.15032h6.482838c.078965 0 .158298 0 .316227.15947M201.074858 21.63205h6.403873c.158297 0 .237262.07955.395559.15947.078965.07955.15793.23902.15793.39812v.71669c0 .15947-.078965.23902-.15793.39849-.079332.07955-.237262.1591-.395559.1591h-7.747746c-.158297 0-.237262-.07955-.395192-.1591-.079332-.07992-.158297-.23902-.158297-.39849v-12.4246c0-.15947.078965-.23902.158297-.39849.078965-.07955.236895-.1591.395192-.1591h7.510851c.15793 0 .236895.07955.395192.1591.078965.07992.15793.23902.15793.39849v.71669c0 .15947-.078965.23902-.15793.39812-.078965.07992-.237262.15947-.395192.15947h-6.245943v4.06186h5.850384c.158297 0 .237262.07955.395559.15947.078965.07955.15793.23902.15793.39812v.71669c0 .15947-.078965.23902-.15793.39849-.079332.07955-.237262.1591-.395559.1591h-5.850384v3.98231h.078965M219.812321 22.58776c.157929.15947.157929.23902.157929.31857 0 .07992-.078965.23902-.157929.31857-.078965.07992-.158298.15947-.316228.15947h-1.185943c-.237262 0-.474524-.07955-.711419-.31857l-5.376227-5.17704v4.93802c0 .15947-.078965.23902-.158297.39812-.078965.07992-.236895.15947-.395192.15947h-.790384c-.158297 0-.237262-.07955-.395559-.15947-.078965-.07955-.15793-.23865-.15793-.39812V10.40181c0-.1591.078965-.23865.15793-.39812.079332-.07955.237262-.1591.395559-.1591h.790384c.158297 0 .237262.07955.395192.1591.079332.07955.158297.23902.158297.39812v4.46035l5.06-4.699c.15793-.15947.395192-.31857.711419-.31857h1.106979c.078964 0 .236894.07955.316227.1591.078964.07955.157929.15947.157929.31857 0 .07955-.078965.23902-.157929.31857l-6.087647 5.65508 6.482839 6.29185"/></g></svg>