<svg xmlns="http://www.w3.org/2000/svg" viewBox="0 0 256 256"><path d="M216.4 198c-.1-.1-1.7-1.8-3.3-4-.8-1.1-1.6-2.3-2.3-3.4-.7-1.1-1.2-2.1-1.4-2.7-.7-2.1-1.2-4.6-1.5-6.5v-.2c5.8-3.6 10.8-8.2 14.4-13.5 4.3-6.2 6.8-13.5 6.8-21.2 0-6.3-1.7-12.3-4.6-17.6-4.4-8-11.6-14.6-20.5-19.2s-19.4-7.2-30.6-7.2c-15 0-28.7 4.7-38.9 12.5-5.1 3.9-9.3 8.6-12.2 14-2.9 5.4-4.6 11.3-4.6 17.6 0 6.3 1.7 12.3 4.6 17.6 4.4 8 11.6 14.6 20.5 19.2s19.4 7.2 30.6 7.2c2.6 0 5-.2 7.5-.4 1.9 2.8 4.8 6.4 9.1 9.4 2.2 1.5 4.6 2.5 7 3.4 3.6 1.3 7.3 2.2 10.1 2.8 2.8.6 4.8.8 4.9.8l14 1.8-9.6-10.4zm-20.6-6.9c-3.6-2.4-6.2-6.2-7.4-8.3l-.1-.2-.5-.8-1.8-2.7-3.2.5c-3 .5-6.1.7-9.3.7-12.9 0-24.5-4-32.6-10.3-4.1-3.1-7.3-6.8-9.5-10.8s-3.3-8.2-3.4-12.7c0-4.5 1.2-8.7 3.4-12.7 3.3-6 8.9-11.3 16.2-15.1 7.3-3.8 16.3-6.1 25.9-6.1 12.9 0 24.5 4 32.6 10.3 4.1 3.1 7.3 6.8 9.5 10.8s3.3 8.2 3.4 12.7c0 5.5-1.7 10.6-5 15.4-3.2 4.7-8 8.9-13.9 12.1l-2.6 1.4-.1 2.9V179.1c0 .1.2 1.6.5 3.8.4 2.2.9 5.1 1.8 8 .3.8.6 1.6 1 2.4-.2-.1-.3-.1-.5-.2-1.8-.5-3.4-1.3-4.4-2z"/><path d="M118.7 174.9h-.4c-5.6 0-11.1-.4-16.4-1.3l-3.2-.5L96 177l-.1.2c-2.2 3.7-7 10.7-13.7 15.3-2.3 1.5-5.4 3-8.9 4.3-3 1.1-6.2 2-9.2 2.8.8-1.1 1.5-2.2 2.2-3.4 1.6-2.6 2.9-5.2 3.8-7.9 1.5-4.6 2.4-9.4 2.9-13.1s.8-6.2.8-6.3v-1.1l-.1-2.9-2.6-1.4c-10.5-5.7-19.1-13.2-25-21.7s-9.1-18.1-9.2-28.3c0-8.3 2.2-16.2 6.1-23.4 6-10.9 16.2-20.4 29.2-27.2C85.4 56 101.2 52 118.3 52c22.8 0 43.3 7.1 58 18.4 7.3 5.6 13.2 12.3 17.2 19.6 1.2 2.1 2.1 4.2 3 6.5 4.2 1.3 8.3 2.9 12.1 4.8-1.2-5.7-3.3-11.1-6.1-16.2-7.1-13-18.8-23.8-33.4-31.4-14.6-7.6-32-11.9-50.7-11.9-24.9 0-47.6 7.8-64.2 20.6-8.4 6.4-15.2 14.1-19.9 22.7-4.8 8.7-7.4 18.3-7.4 28.4 0 12.4 4 24 11 34.1 6.3 9.2 15.1 17 25.6 23.2-.1 1-.3 2.1-.5 3.5-.5 3.2-1.4 7.3-2.5 10.9-.5 1.5-1.5 3.6-2.8 5.7-1.9 3.2-4.5 6.5-6.5 8.9-1 1.2-1.9 2.3-2.5 3-.3.4-.6.6-.7.8l-.2.2-.1.1-9.7 10.3 14-1.8c.1 0 5.9-.8 13.2-2.5 3.6-.9 7.7-2 11.6-3.4s7.8-3.2 11.1-5.4c7.7-5.2 12.8-12.2 15.7-16.8 4.8.6 9.7.9 14.7.9 3.6 0 7.1-.2 10.5-.5-3.7-3-7.2-6.3-10.1-9.8z"/></svg>