<svg width="48" height="48" fill="none" xmlns="http://www.w3.org/2000/svg"><path d="M6.042 41.88A.151.151 0 0 1 6 41.77v-4.635a.144.144 0 0 1 .153-.152h.117a.144.144 0 0 1 .153.153v2.458l1.55-1.175a.817.817 0 0 1 .152-.1.405.405 0 0 1 .14-.017h.13a.136.136 0 0 1 .13.085c.007.017.01.036.009.054a.178.178 0 0 1-.09.139L6.69 39.914l1.93 1.722c.062.055.093.103.093.139a.134.134 0 0 1-.14.139h-.11a.502.502 0 0 1-.153-.017.461.461 0 0 1-.14-.103l-1.758-1.547v1.514a.144.144 0 0 1-.152.153h-.117a.15.15 0 0 1-.1-.034zm3.653-.328a1.711 1.711 0 0 1-.356-1.11v-1.973a.15.15 0 0 1 .042-.111.154.154 0 0 1 .111-.042h.12a.154.154 0 0 1 .11.042.15.15 0 0 1 .042.11v1.945c0 .793.345 1.19 1.034 1.19a1.03 1.03 0 0 0 .794-.317c.21-.241.316-.554.297-.873V38.47a.144.144 0 0 1 .153-.153h.117a.144.144 0 0 1 .153.153v3.306a.144.144 0 0 1-.153.153h-.117a.143.143 0 0 1-.11-.043.144.144 0 0 1-.043-.11v-.328a1.417 1.417 0 0 1-.477.397c-.214.1-.448.148-.684.139a1.262 1.262 0 0 1-1.033-.43zm3.784.328a.152.152 0 0 1-.042-.11v-3.31a.164.164 0 0 1 .042-.113.145.145 0 0 1 .11-.045h.112a.148.148 0 0 1 .114.045.157.157 0 0 1 .047.114v.319a.964.964 0 0 1 .944-.478h.256a.144.144 0 0 1 .153.153v.092a.144.144 0 0 1-.153.153h-.297a.833.833 0 0 0-.903.902v2.153a.141.141 0 0 1-.047.111.158.158 0 0 1-.114.042h-.111a.153.153 0 0 1-.111-.028zm2.76-.05a1.39 1.39 0 0 1-.466-.347.578.578 0 0 1-.155-.314.119.119 0 0 1 .05-.1.163.163 0 0 1 .102-.039h.106a.136.136 0 0 1 .078.02c.03.018.055.043.075.072.1.14.23.256.383.336.188.09.395.132.603.122.242.01.482-.046.694-.164a.519.519 0 0 0 .264-.47.436.436 0 0 0-.108-.305.894.894 0 0 0-.347-.203 7.013 7.013 0 0 0-.712-.2 1.651 1.651 0 0 1-.833-.38.875.875 0 0 1-.225-.62c0-.172.05-.34.142-.486.104-.16.25-.29.422-.375a1.46 1.46 0 0 1 .678-.144c.243-.008.484.04.706.142.167.075.314.188.43.33a.556.556 0 0 1 .142.306.121.121 0 0 1-.045.1.167.167 0 0 1-.108.039h-.103a.166.166 0 0 1-.153-.092 1.029 1.029 0 0 0-.336-.314 1.095 1.095 0 0 0-.555-.108.964.964 0 0 0-.611.166.53.53 0 0 0-.209.436c-.004.1.026.197.084.278a.72.72 0 0 0 .313.206c.217.082.44.146.667.191.33.053.643.187.909.39a.833.833 0 0 1 .277.644.917.917 0 0 1-.158.522 1.078 1.078 0 0 1-.472.375 1.85 1.85 0 0 1-.75.139 1.69 1.69 0 0 1-.778-.153zm5.02-.336a2.098 2.098 0 0 1-.377-1.192v-.389c.002-.426.133-.842.378-1.191a1.287 1.287 0 0 1 1.11-.49 1.37 1.37 0 0 1 1.168.556v-1.644a.145.145 0 0 1 .152-.153h.12a.154.154 0 0 1 .11.042.151.151 0 0 1 .043.11v4.626a.15.15 0 0 1-.042.111.152.152 0 0 1-.111.042h-.12a.145.145 0 0 1-.152-.153v-.328a1.358 1.358 0 0 1-1.167.556 1.286 1.286 0 0 1-1.111-.503zm1.979-.278c.185-.248.289-.548.297-.858v-.556a1.413 1.413 0 0 0-.13-.555 1.11 1.11 0 0 0-.376-.442c-.184-.12-.4-.18-.62-.172a.945.945 0 0 0-.833.358c-.184.271-.28.592-.277.92v.194c-.016.37.07.735.25 1.059a.926.926 0 0 0 .86.413.982.982 0 0 0 .829-.36zm2.105.325a1.728 1.728 0 0 1-.42-1.141v-.57a1.728 1.728 0 0 1 .42-1.142 1.648 1.648 0 0 1 2.245 0c.274.317.424.723.42 1.142v.57c.004.419-.145.825-.42 1.141a1.647 1.647 0 0 1-2.245 0zm1.917-.277c.217-.25.333-.57.325-.9v-.514c.009-.33-.107-.65-.325-.898a1.155 1.155 0 0 0-1.589 0 1.306 1.306 0 0 0-.322.898v.514c-.01.33.106.65.322.9a1.156 1.156 0 0 0 1.589 0zm3.525.6a.15.15 0 0 1-.047-.117v-4.528a.16.16 0 0 1 .047-.122.166.166 0 0 1 .12-.045h.644a.15.15 0 0 1 .123.044.152.152 0 0 1 .044.123v3.867h2.197a.168.168 0 0 1 .125.05.178.178 0 0 1 .048.125v.486a.167.167 0 0 1-.048.122.178.178 0 0 1-.125.045h-3.008a.161.161 0 0 1-.12-.05zm4.028 0a.15.15 0 0 1-.047-.117v-4.523a.178.178 0 0 1 .044-.125.165.165 0 0 1 .123-.047h3.056a.16.16 0 0 1 .162.105.161.161 0 0 1 .01.067v.459a.165.165 0 0 1-.047.122.177.177 0 0 1-.125.044h-2.287v1.231h2.134a.177.177 0 0 1 .125.044.165.165 0 0 1 .047.123v.43a.167.167 0 0 1-.047.123.177.177 0 0 1-.125.044h-2.134v1.27h2.342a.17.17 0 0 1 .125.05.178.178 0 0 1 .047.124v.459a.167.167 0 0 1-.047.122.178.178 0 0 1-.125.045h-3.111a.161.161 0 0 1-.12-.05zm4.32 0a.151.151 0 0 1-.047-.117v-4.523a.178.178 0 0 1 .044-.125.164.164 0 0 1 .122-.047h.612a.16.16 0 0 1 .172.172v1.626l1.57-1.667a.314.314 0 0 1 .277-.125h.686c.038 0 .074.015.1.041a.133.133 0 0 1 .048.103c0 .03-.01.06-.028.084l-1.917 2.094 2.042 2.3a.145.145 0 0 1 .036.09.141.141 0 0 1-.047.105.147.147 0 0 1-.1.041h-.714a.326.326 0 0 1-.278-.125l-1.686-1.855v1.8a.167.167 0 0 1-.047.122.178.178 0 0 1-.126.045h-.61a.162.162 0 0 1-.109-.04z" fill="#0C1726"/><path d="M21.398 20.74a1.253 1.253 0 1 0 0-2.506 1.253 1.253 0 0 0 0 2.506z" fill="#19171C"/><path d="M21.262 9.128a1.342 1.342 0 1 0-.006-2.684 1.342 1.342 0 0 0 .006 2.684zm8.761 6.15s0-2.5-1.944-2.5c-1.945 0-2.222 2.5-2.222 2.5H15.3s1.667 9.723 6.112 13.335c4.445 3.611 7.5-.556 9.167-3.334 1.667-2.778 3.056-6.667 3.334-10h-3.89z" fill="#fff"/><path d="M31.671 6.503a3.22 3.22 0 0 0-2.639-.064 1.667 1.667 0 1 0 .692 1.347c0-.135-.018-.27-.053-.4.49-.155 1.02-.12 1.484.1 1.975 1.04 2.694 3.362 2.3 7.484h-2.861a2.536 2.536 0 1 0-5.07 0H15.73c-.397-4.122.325-6.445 2.298-7.484.466-.22.998-.254 1.489-.097-.031.13-.048.263-.05.397a1.786 1.786 0 1 0 .636-1.366 3.222 3.222 0 0 0-2.598.083c-3.303 1.736-3.225 5.97-2.777 9.464.641 5.14 3.025 9.526 5.039 11.918 1.303 1.544 2.67 2.483 4.003 2.761a3.84 3.84 0 0 0 3.12 2.88c.24.043.483.064.727.065a3.66 3.66 0 0 0 3.487-2.284c.647-1.725.189-3.355-.659-4.77a24.508 24.508 0 0 0 4.023-10.556c.43-3.508.508-7.742-2.798-9.478zm-10.409.33a.953.953 0 1 1-.016 1.906.953.953 0 0 1 .016-1.906zm6.795 6.434a1.702 1.702 0 1 1 .006 3.405 1.702 1.702 0 0 1-.006-3.405zm-4.722 7.928a2.586 2.586 0 1 1 .541-.972 19.415 19.415 0 0 1 5.912 5.278c-.228.348-.456.67-.68.973a18.258 18.258 0 0 0-5.77-5.279h-.003zm6.722 9.723c-.472 1.256-1.858 1.712-2.983 1.514a2.778 2.778 0 0 1-2.125-1.714c1.478-.136 3.017-1.11 4.47-2.833.1-.117.2-.242.3-.37.638 1.225.741 2.331.341 3.403h-.003zm2.053-10.086a.277.277 0 0 1-.355.169.277.277 0 0 1-.17-.353 24.217 24.217 0 0 0 1.13-4.483.28.28 0 1 1 .556.077 25.145 25.145 0 0 1-1.158 4.59h-.003z" fill="#0C1726"/><path d="M21.395 20.76a1.253 1.253 0 1 0 0-2.506 1.253 1.253 0 0 0 0 2.505z" fill="#0C1726"/></svg>