<svg xmlns="http://www.w3.org/2000/svg" viewBox="0 0 128.14 54.05"><title>wnl-horyzontalnie</title><path d="M121.75,21.45a3.22,3.22,0,0,1-.4.05,1.21,1.21,0,0,1-1.07-.8C118.14,14.94,113,10.15,106.3,8a1.19,1.19,0,0,1-.77-1.5h0a1.19,1.19,0,0,1,1.5-.77h0c7.28,2.45,13.06,7.76,15.4,14.19A1.27,1.27,0,0,1,121.75,21.45ZM32,49.66h-.4c-14.79,0-26.87-10.08-26.87-22.55s12-22.55,26.87-22.55H63.46l-.07,45.1H32ZM99.2.16H31.55C14.28.16.29,12.23.29,27.11S14.36,54.05,31.55,54.05H99.13c16,0,29-12.14,29-27S115.19.16,99.2.16Z" style="fill:#242d47"/><path d="M55.95,23.63a4.38,4.38,0,0,0-3,1.23L36.72,13a2.94,2.94,0,0,0-.19-2.51A2.9,2.9,0,0,0,33.94,9h0A2.94,2.94,0,0,0,31,11.94v0a2.95,2.95,0,0,0,4.76,2.33L52,26.16a4.26,4.26,0,0,0,0,3.67L35.8,41.08a3,3,0,0,0-3.9.13,2.82,2.82,0,0,0-.9,2.14v0a3,3,0,0,0,3.58,2.9,3,3,0,0,0,2-1.61,2.77,2.77,0,0,0,.13-2.29L52.86,31.14A4.38,4.38,0,0,0,60.34,28a4.44,4.44,0,0,0-4.4-4.4" style="fill:#242d47"/><path d="M55.87,29.83a2,2,0,1,1,2-2,2,2,0,0,1-2,2" style="fill:#fff"/><path d="M33.88,13.2a1.36,1.36,0,1,1,1.36-1.36,1.4,1.4,0,0,1-1.36,1.36" style="fill:#fff"/><path d="M21.48,37.4a.8.8,0,0,0,0,1.6h0a.8.8,0,0,0,0-1.6" style="fill:#242d47"/><path d="M17.88,33.19a1.36,1.36,0,1,0,1.36,1.36,1.36,1.36,0,0,0-1.36-1.36" style="fill:#242d47"/><path d="M16.56,25A2.53,2.53,0,0,0,14,27.49s0,0,0,.07A2.56,2.56,0,1,0,16.63,25H17" style="fill:#242d47"/></svg>