<?xml version="1.0" encoding="utf-8"?><svg xmlns="http://www.w3.org/2000/svg" xmlns:xlink="http://www.w3.org/1999/xlink"><symbol viewBox="0 0 100 100" id="close-fullscreen" xmlns="http://www.w3.org/2000/svg"><path d="M94.2 94.2C93.1 95.4 91.5 96 90 96s-3.1-.6-4.2-1.8L68 76.5V84c0 3.3-2.7 6-6 6s-6-2.7-6-6V62c0-.6.1-1.2.2-1.7 0-.2.1-.3.2-.5.3-.7.7-1.4 1.3-2s1.3-1 2-1.3c.2-.1.3-.1.5-.2.6-.2 1.1-.3 1.7-.3h22c3.3 0 6 2.7 6 6s-2.7 6-6 6h-7.5l17.8 17.8a5.8 5.8 0 0 1 0 8.4zM44 62v22c0 3.3-2.7 6-6 6s-6-2.7-6-6v-7.5L14.2 94.2C13.1 95.4 11.5 96 10 96s-3.1-.6-4.2-1.8c-2.3-2.3-2.3-6.1 0-8.5L23.5 68H16c-3.3 0-6-2.7-6-6s2.7-6 6-6h22c.6 0 1.2.1 1.7.2.2 0 .3.1.5.2.7.3 1.4.7 2 1.3s1 1.3 1.3 2c.1.2.1.3.2.5.2.6.3 1.2.3 1.8zm0-46v22c0 .6-.1 1.2-.2 1.7 0 .2-.1.3-.2.5-.3.7-.7 1.4-1.3 2-.3.3-.7.6-1 .8-.1.1-.3.2-.4.2-.2.1-.3.2-.5.2h-.1c-.2.1-.3.1-.5.2-.6.3-1.2.4-1.8.4H16c-3.3 0-6-2.7-6-6s2.7-6 6-6h7.5L5.8 14.2c-2.3-2.3-2.3-6.1 0-8.5 2.3-2.3 6.1-2.3 8.5 0L32 23.5V16c0-3.3 2.7-6 6-6s6 2.7 6 6zm50.2-1.8L76.5 32H84c3.3 0 6 2.7 6 6s-2.7 6-6 6H62c-.6 0-1.2-.1-1.7-.2-.2 0-.3-.1-.5-.2h-.1c-.2-.1-.3-.2-.5-.2-.1-.1-.3-.2-.4-.2-.4-.2-.7-.5-1-.8-.6-.6-1-1.3-1.3-2-.1-.2-.1-.3-.2-.5-.2-.7-.3-1.3-.3-1.9V16c0-3.3 2.7-6 6-6s6 2.7 6 6v7.5L85.8 5.8c2.3-2.3 6.1-2.3 8.5 0 2.3 2.3 2.3 6.1-.1 8.4z"/></symbol><symbol viewBox="0 0 256 256" id="comments" xmlns="http://www.w3.org/2000/svg"><path d="M216.4 198c-.1-.1-1.7-1.8-3.3-4-.8-1.1-1.6-2.3-2.3-3.4-.7-1.1-1.2-2.1-1.4-2.7-.7-2.1-1.2-4.6-1.5-6.5v-.2c5.8-3.6 10.8-8.2 14.4-13.5 4.3-6.2 6.8-13.5 6.8-21.2 0-6.3-1.7-12.3-4.6-17.6-4.4-8-11.6-14.6-20.5-19.2s-19.4-7.2-30.6-7.2c-15 0-28.7 4.7-38.9 12.5-5.1 3.9-9.3 8.6-12.2 14-2.9 5.4-4.6 11.3-4.6 17.6 0 6.3 1.7 12.3 4.6 17.6 4.4 8 11.6 14.6 20.5 19.2s19.4 7.2 30.6 7.2c2.6 0 5-.2 7.5-.4 1.9 2.8 4.8 6.4 9.1 9.4 2.2 1.5 4.6 2.5 7 3.4 3.6 1.3 7.3 2.2 10.1 2.8 2.8.6 4.8.8 4.9.8l14 1.8-9.6-10.4zm-20.6-6.9c-3.6-2.4-6.2-6.2-7.4-8.3l-.1-.2-.5-.8-1.8-2.7-3.2.5c-3 .5-6.1.7-9.3.7-12.9 0-24.5-4-32.6-10.3-4.1-3.1-7.3-6.8-9.5-10.8s-3.3-8.2-3.4-12.7c0-4.5 1.2-8.7 3.4-12.7 3.3-6 8.9-11.3 16.2-15.1 7.3-3.8 16.3-6.1 25.9-6.1 12.9 0 24.5 4 32.6 10.3 4.1 3.1 7.3 6.8 9.5 10.8s3.3 8.2 3.4 12.7c0 5.5-1.7 10.6-5 15.4-3.2 4.7-8 8.9-13.9 12.1l-2.6 1.4-.1 2.9v.9c0 .1.2 1.6.5 3.8.4 2.2.9 5.1 1.8 8 .3.8.6 1.6 1 2.4-.2-.1-.3-.1-.5-.2-1.8-.5-3.4-1.3-4.4-2z"/><path d="M118.7 174.9h-.4c-5.6 0-11.1-.4-16.4-1.3l-3.2-.5L96 177l-.1.2c-2.2 3.7-7 10.7-13.7 15.3-2.3 1.5-5.4 3-8.9 4.3-3 1.1-6.2 2-9.2 2.8.8-1.1 1.5-2.2 2.2-3.4 1.6-2.6 2.9-5.2 3.8-7.9 1.5-4.6 2.4-9.4 2.9-13.1s.8-6.2.8-6.3v-1.1l-.1-2.9-2.6-1.4c-10.5-5.7-19.1-13.2-25-21.7s-9.1-18.1-9.2-28.3c0-8.3 2.2-16.2 6.1-23.4 6-10.9 16.2-20.4 29.2-27.2C85.4 56 101.2 52 118.3 52c22.8 0 43.3 7.1 58 18.4 7.3 5.6 13.2 12.3 17.2 19.6 1.2 2.1 2.1 4.2 3 6.5 4.2 1.3 8.3 2.9 12.1 4.8-1.2-5.7-3.3-11.1-6.1-16.2-7.1-13-18.8-23.8-33.4-31.4-14.6-7.6-32-11.9-50.7-11.9-24.9 0-47.6 7.8-64.2 20.6-8.4 6.4-15.2 14.1-19.9 22.7-4.8 8.7-7.4 18.3-7.4 28.4 0 12.4 4 24 11 34.1 6.3 9.2 15.1 17 25.6 23.2-.1 1-.3 2.1-.5 3.5-.5 3.2-1.4 7.3-2.5 10.9-.5 1.5-1.5 3.6-2.8 5.7-1.9 3.2-4.5 6.5-6.5 8.9-1 1.2-1.9 2.3-2.5 3-.3.4-.6.6-.7.8l-.2.2-.1.1-9.7 10.3 14-1.8c.1 0 5.9-.8 13.2-2.5 3.6-.9 7.7-2 11.6-3.4s7.8-3.2 11.1-5.4c7.7-5.2 12.8-12.2 15.7-16.8 4.8.6 9.7.9 14.7.9 3.6 0 7.1-.2 10.5-.5-3.7-3-7.2-6.3-10.1-9.8z"/></symbol><symbol viewBox="0 0 100 100" id="fullscreen-arrows" xmlns="http://www.w3.org/2000/svg"><path d="M42.24 66.24L24.48 84H32c3.31 0 6 2.69 6 6s-2.69 6-6 6H10c-.58 0-1.15-.08-1.71-.25a7.33 7.33 0 0 1-.5-.17c-.02-.01-.04-.02-.06-.02-.18-.08-.35-.16-.52-.25-.14-.07-.28-.16-.42-.25-.37-.23-.71-.5-1.03-.82-.6-.6-1.05-1.29-1.34-2.03-.07-.16-.12-.33-.17-.5A5.85 5.85 0 0 1 4 90V68c0-3.31 2.69-6 6-6s6 2.69 6 6v7.52l17.76-17.76a5.981 5.981 0 0 1 8.48 0 5.981 5.981 0 0 1 0 8.48zM42.24 42.24C41.07 43.41 39.54 44 38 44s-3.07-.59-4.24-1.76L16 24.48V32c0 3.31-2.69 6-6 6s-6-2.69-6-6V10c0-.58.08-1.15.25-1.71.05-.17.1-.34.17-.5.29-.74.74-1.43 1.34-2.03.6-.6 1.29-1.05 2.03-1.34.16-.07.33-.12.5-.17A5.85 5.85 0 0 1 10 4h22c3.31 0 6 2.69 6 6s-2.69 6-6 6h-7.52l17.76 17.76a5.981 5.981 0 0 1 0 8.48zM96 10v22c0 3.31-2.69 6-6 6s-6-2.69-6-6v-7.52L66.24 42.24C65.07 43.41 63.54 44 62 44s-3.07-.59-4.24-1.76a5.981 5.981 0 0 1 0-8.48L75.52 16H68c-3.31 0-6-2.69-6-6s2.69-6 6-6h22c.58 0 1.15.08 1.71.25.17.05.34.1.5.17.74.29 1.43.74 2.03 1.34.6.6 1.05 1.29 1.34 2.03.07.16.12.33.17.5.17.56.25 1.13.25 1.71zM90 62c-3.31 0-6 2.69-6 6v7.52L66.24 57.76a5.981 5.981 0 0 0-8.48 0 5.981 5.981 0 0 0 0 8.48L75.52 84H68c-3.31 0-6 2.69-6 6s2.69 6 6 6h22c.58 0 1.15-.08 1.71-.25.17-.05.34-.11.5-.17.02-.01.04-.02.06-.02.18-.08.35-.16.52-.25.14-.07.28-.16.42-.25.37-.23.71-.5 1.03-.82.6-.6 1.05-1.29 1.34-2.03.07-.16.12-.33.17-.5.17-.56.25-1.13.25-1.71V68c0-3.31-2.69-6-6-6z"/></symbol><symbol viewBox="0 0 12 14" id="refresh" xmlns="http://www.w3.org/2000/svg"><path d="M11.805 8.25q0 .039-.008.055-.5 2.094-2.094 3.395t-3.734 1.301q-1.141 0-2.207-.43T1.86 11.344L.852 12.352Q.704 12.5.5 12.5t-.352-.148T0 12V8.5q0-.203.148-.352T.5 8H4q.203 0 .352.148T4.5 8.5t-.148.352l-1.07 1.07q.555.516 1.258.797T6.001 11q1.047 0 1.953-.508t1.453-1.398q.086-.133.414-.914.062-.18.234-.18h1.5q.102 0 .176.074t.074.176zM12 2v3.5q0 .203-.148.352T11.5 6H8q-.203 0-.352-.148T7.5 5.5t.148-.352L8.726 4.07Q7.57 3 5.999 3q-1.047 0-1.953.508T2.593 4.906q-.086.133-.414.914-.062.18-.234.18H.39q-.102 0-.176-.074T.14 5.75v-.055Q.648 3.601 2.249 2.3T5.999.999q1.141 0 2.219.434t1.914 1.223l1.016-1.008q.148-.148.352-.148t.352.148T12 2z"/></symbol><symbol viewBox="0 0 100 100" id="send-message" xmlns="http://www.w3.org/2000/svg"><path d="M76.3 1.8H23.7C16 1.8 9.8 8 9.8 15.6v39.8c0 7.7 6.2 13.9 13.9 13.9h52.7c7.7 0 13.9-6.2 13.9-13.9V15.6C90.2 8 84 1.8 76.3 1.8zm.1 53.7c-1.3 1.3-3.3 1.3-4.5 0L55 38.6l-2.9 2.5c-1.2 1-3 1-4.2 0L45 38.6 28.1 55.5c-1.3 1.3-3.3 1.3-4.5 0s-1.3-3.3 0-4.5l16.5-16.5-16.3-14.2c-1.3-1.2-1.5-3.2-.3-4.5 1.2-1.3 3.2-1.5 4.5-.3l22 19.1 22-19.1c1.3-1.2 3.4-1 4.5.3s1 3.4-.3 4.5L59.9 34.4l16.5 16.5c1.3 1.3 1.3 3.3 0 4.6zM53.3 77.3v17.3c-.1 1.8-1.6 3.2-3.4 3.1-1.7-.1-3-1.4-3.1-3.1V77.3c-.1-1.8 1.3-3.3 3.1-3.4 1.8-.1 3.3 1.3 3.4 3.1v.3zm12.9 0v9.1c.1 1.8-1.3 3.3-3.1 3.4-1.8.1-3.3-1.3-3.4-3.1v-9.5c-.1-1.8 1.3-3.3 3.1-3.4 1.8-.1 3.3 1.3 3.4 3.1v.4zm-25.9 0v9.1c.1 1.8-1.3 3.3-3.1 3.4-1.8.1-3.3-1.3-3.4-3.1v-9.5c-.1-1.8 1.3-3.3 3.1-3.4 1.8-.1 3.3 1.3 3.4 3.1v.4z"/></symbol></svg>