<?xml version="1.0" encoding="utf-8"?><svg xmlns="http://www.w3.org/2000/svg" xmlns:xlink="http://www.w3.org/1999/xlink"><symbol viewBox="0 0 100 100" id="fullscreen-arrows"><path d="M42.24 66.24L24.48 84H32c3.31 0 6 2.69 6 6s-2.69 6-6 6H10c-.58 0-1.15-.08-1.71-.25a7.33 7.33 0 0 1-.5-.17c-.02-.01-.04-.02-.06-.02-.18-.08-.35-.16-.52-.25-.14-.07-.28-.16-.42-.25-.37-.23-.71-.5-1.03-.82-.6-.6-1.05-1.29-1.34-2.03-.07-.16-.12-.33-.17-.5A5.85 5.85 0 0 1 4 90V68c0-3.31 2.69-6 6-6s6 2.69 6 6v7.52l17.76-17.76a5.981 5.981 0 0 1 8.48 0 5.981 5.981 0 0 1 0 8.48zM42.24 42.24C41.07 43.41 39.54 44 38 44s-3.07-.59-4.24-1.76L16 24.48V32c0 3.31-2.69 6-6 6s-6-2.69-6-6V10c0-.58.08-1.15.25-1.71.05-.17.1-.34.17-.5.29-.74.74-1.43 1.34-2.03.6-.6 1.29-1.05 2.03-1.34.16-.07.33-.12.5-.17A5.85 5.85 0 0 1 10 4h22c3.31 0 6 2.69 6 6s-2.69 6-6 6h-7.52l17.76 17.76a5.981 5.981 0 0 1 0 8.48zM96 10v22c0 3.31-2.69 6-6 6s-6-2.69-6-6v-7.52L66.24 42.24C65.07 43.41 63.54 44 62 44s-3.07-.59-4.24-1.76a5.981 5.981 0 0 1 0-8.48L75.52 16H68c-3.31 0-6-2.69-6-6s2.69-6 6-6h22c.58 0 1.15.08 1.71.25.17.05.34.1.5.17.74.29 1.43.74 2.03 1.34.6.6 1.05 1.29 1.34 2.03.07.16.12.33.17.5.17.56.25 1.13.25 1.71zM90 62c-3.31 0-6 2.69-6 6v7.52L66.24 57.76a5.981 5.981 0 0 0-8.48 0 5.981 5.981 0 0 0 0 8.48L75.52 84H68c-3.31 0-6 2.69-6 6s2.69 6 6 6h22c.58 0 1.15-.08 1.71-.25.17-.05.34-.11.5-.17.02-.01.04-.02.06-.02.18-.08.35-.16.52-.25.14-.07.28-.16.42-.25.37-.23.71-.5 1.03-.82.6-.6 1.05-1.29 1.34-2.03.07-.16.12-.33.17-.5.17-.56.25-1.13.25-1.71V68c0-3.31-2.69-6-6-6z"/></symbol><symbol viewBox="0 0 100 100" id="send-message"><path d="M76.3 1.8H23.7C16 1.8 9.8 8 9.8 15.6v39.8c0 7.7 6.2 13.9 13.9 13.9h52.7c7.7 0 13.9-6.2 13.9-13.9V15.6C90.2 8 84 1.8 76.3 1.8zm.1 53.7c-1.3 1.3-3.3 1.3-4.5 0L55 38.6l-2.9 2.5c-1.2 1-3 1-4.2 0L45 38.6 28.1 55.5c-1.3 1.3-3.3 1.3-4.5 0s-1.3-3.3 0-4.5l16.5-16.5-16.3-14.2c-1.3-1.2-1.5-3.2-.3-4.5 1.2-1.3 3.2-1.5 4.5-.3l22 19.1 22-19.1c1.3-1.2 3.4-1 4.5.3s1 3.4-.3 4.5L59.9 34.4l16.5 16.5c1.3 1.3 1.3 3.3 0 4.6zM53.3 77.3v17.3c-.1 1.8-1.6 3.2-3.4 3.1-1.7-.1-3-1.4-3.1-3.1V77.3c-.1-1.8 1.3-3.3 3.1-3.4 1.8-.1 3.3 1.3 3.4 3.1v.3zm12.9 0v9.1c.1 1.8-1.3 3.3-3.1 3.4-1.8.1-3.3-1.3-3.4-3.1v-9.5c-.1-1.8 1.3-3.3 3.1-3.4 1.8-.1 3.3 1.3 3.4 3.1v.4zm-25.9 0v9.1c.1 1.8-1.3 3.3-3.1 3.4-1.8.1-3.3-1.3-3.4-3.1v-9.5c-.1-1.8 1.3-3.3 3.1-3.4 1.8-.1 3.3 1.3 3.4 3.1v.4z"/></symbol></svg>