<?xml version="1.0" encoding="utf-8"?><svg xmlns="http://www.w3.org/2000/svg" xmlns:xlink="http://www.w3.org/1999/xlink"><symbol viewBox="0 0 100 100" id="send-message"><path d="M76.3 1.8H23.7C16 1.8 9.8 8 9.8 15.6v39.8c0 7.7 6.2 13.9 13.9 13.9h52.7c7.7 0 13.9-6.2 13.9-13.9V15.6C90.2 8 84 1.8 76.3 1.8zm.1 53.7c-1.3 1.3-3.3 1.3-4.5 0L55 38.6l-2.9 2.5c-1.2 1-3 1-4.2 0L45 38.6 28.1 55.5c-1.3 1.3-3.3 1.3-4.5 0s-1.3-3.3 0-4.5l16.5-16.5-16.3-14.2c-1.3-1.2-1.5-3.2-.3-4.5 1.2-1.3 3.2-1.5 4.5-.3l22 19.1 22-19.1c1.3-1.2 3.4-1 4.5.3s1 3.4-.3 4.5L59.9 34.4l16.5 16.5c1.3 1.3 1.3 3.3 0 4.6zM53.3 77.3v17.3c-.1 1.8-1.6 3.2-3.4 3.1-1.7-.1-3-1.4-3.1-3.1V77.3c-.1-1.8 1.3-3.3 3.1-3.4 1.8-.1 3.3 1.3 3.4 3.1v.3zm12.9 0v9.1c.1 1.8-1.3 3.3-3.1 3.4-1.8.1-3.3-1.3-3.4-3.1v-9.5c-.1-1.8 1.3-3.3 3.1-3.4 1.8-.1 3.3 1.3 3.4 3.1v.4zm-25.9 0v9.1c.1 1.8-1.3 3.3-3.1 3.4-1.8.1-3.3-1.3-3.4-3.1v-9.5c-.1-1.8 1.3-3.3 3.1-3.4 1.8-.1 3.3 1.3 3.4 3.1v.4z"/></symbol></svg>
