<svg xmlns="http://www.w3.org/2000/svg" viewBox="0 0 100 100"><path fill="#fff" d="M76.3 1.8H23.7C16 1.8 9.8 8 9.8 15.6v39.8c0 7.7 6.2 13.9 13.9 13.9h52.7c7.7 0 13.9-6.2 13.9-13.9V15.6C90.2 8 84 1.8 76.3 1.8zM76.4 55.5c-1.3 1.3-3.3 1.3-4.5 0 0 0 0 0 0 0L55 38.6l-2.9 2.5c-1.2 1-3 1-4.2 0L45 38.6 28.1 55.5c-1.3 1.3-3.3 1.3-4.5 0s-1.3-3.3 0-4.5l16.5-16.5L23.8 20.3c-1.3-1.2-1.5-3.2-0.3-4.5 1.2-1.3 3.2-1.5 4.5-0.3l22 19.1 22-19.1c1.3-1.2 3.4-1 4.5 0.3s1 3.4-0.3 4.5L59.9 34.4l16.5 16.5C77.7 52.2 77.7 54.2 76.4 55.5 76.4 55.5 76.4 55.5 76.4 55.5zM53.3 77.3v17.3c-0.1 1.8-1.6 3.2-3.4 3.1 -1.7-0.1-3-1.4-3.1-3.1V77.3c-0.1-1.8 1.3-3.3 3.1-3.4 1.8-0.1 3.3 1.3 3.4 3.1C53.3 77 53.3 77.2 53.3 77.3zM66.2 77.3v9.1c0.1 1.8-1.3 3.3-3.1 3.4 -1.8 0.1-3.3-1.3-3.4-3.1 0-0.1 0-0.2 0-0.4v-9.1c-0.1-1.8 1.3-3.3 3.1-3.4 1.8-0.1 3.3 1.3 3.4 3.1C66.2 77 66.2 77.2 66.2 77.3zM40.3 77.3v9.1c0.1 1.8-1.3 3.3-3.1 3.4 -1.8 0.1-3.3-1.3-3.4-3.1 0-0.1 0-0.2 0-0.4v-9.1c-0.1-1.8 1.3-3.3 3.1-3.4 1.8-0.1 3.3 1.3 3.4 3.1C40.3 77 40.3 77.2 40.3 77.3z"/></svg>
